<svg width="33" height="32" viewBox="0 0 33 32" fill="none" xmlns="http://www.w3.org/2000/svg">
<path d="M10.9782 25.7664C10.9782 25.8987 10.826 26.0046 10.6341 26.0046C10.4158 26.0244 10.2636 25.9185 10.2636 25.7664C10.2636 25.634 10.4158 25.5281 10.6077 25.5281C10.8062 25.5083 10.9782 25.6142 10.9782 25.7664ZM8.92036 25.4686C8.87404 25.6009 9.00638 25.7531 9.20489 25.7928C9.37693 25.859 9.57544 25.7928 9.61514 25.6605C9.65484 25.5281 9.52912 25.376 9.33061 25.3164C9.15857 25.2701 8.96668 25.3362 8.92036 25.4686ZM11.845 25.3561C11.6532 25.4024 11.5208 25.5281 11.5407 25.6803C11.5605 25.8127 11.7326 25.8987 11.9311 25.8524C12.123 25.8061 12.2553 25.6803 12.2354 25.548C12.2156 25.4223 12.0369 25.3363 11.845 25.3561ZM16.199 0C7.0213 0 0.000732422 6.96763 0.000732422 16.1453C0.000732422 23.4835 4.61935 29.763 11.2164 31.973C12.0634 32.1252 12.3612 31.6025 12.3612 31.1724C12.3612 30.7621 12.3413 28.4991 12.3413 27.1096C12.3413 27.1096 7.70946 28.1021 6.73677 25.1377C6.73677 25.1377 5.98244 23.2122 4.89727 22.7159C4.89727 22.7159 3.38199 21.6771 5.00314 21.6969C5.00314 21.6969 6.65075 21.8293 7.55727 23.4041C9.00638 25.9582 11.4348 25.2238 12.381 24.787C12.5332 23.7283 12.9633 22.9939 13.4397 22.5571C9.74086 22.1469 6.00891 21.6109 6.00891 15.2454C6.00891 13.4258 6.5118 12.5126 7.57051 11.348C7.39847 10.9179 6.83603 9.14461 7.74255 6.85515C9.12549 6.42505 12.3082 8.64172 12.3082 8.64172C13.6316 8.27117 15.0543 8.07928 16.4637 8.07928C17.8731 8.07928 19.2957 8.27117 20.6191 8.64172C20.6191 8.64172 23.8019 6.41843 25.1848 6.85515C26.0913 9.15122 25.5289 10.9179 25.3568 11.348C26.4155 12.5192 27.064 13.4324 27.064 15.2454C27.064 21.6308 23.1666 22.1403 19.4678 22.5571C20.0765 23.0799 20.5926 24.0724 20.5926 25.6274C20.5926 27.8573 20.5728 30.6166 20.5728 31.1592C20.5728 31.5893 20.8772 32.112 21.7175 31.9598C28.3345 29.763 32.8207 23.4835 32.8207 16.1453C32.8207 6.96763 25.3767 0 16.199 0ZM6.43239 22.8218C6.34637 22.888 6.36623 23.0402 6.47871 23.1659C6.58458 23.2718 6.73677 23.3181 6.82279 23.2321C6.90881 23.1659 6.88896 23.0137 6.77648 22.888C6.6706 22.7821 6.51841 22.7358 6.43239 22.8218ZM5.71777 22.2858C5.67145 22.3719 5.73762 22.4777 5.86996 22.5439C5.97583 22.6101 6.10816 22.5902 6.15448 22.4976C6.2008 22.4116 6.13463 22.3057 6.00229 22.2395C5.86996 22.1998 5.76408 22.2197 5.71777 22.2858ZM7.86165 24.6415C7.75578 24.7275 7.79548 24.926 7.94767 25.0517C8.09986 25.2039 8.29175 25.2238 8.37777 25.1179C8.46379 25.0319 8.42409 24.8334 8.29175 24.7076C8.14618 24.5555 7.94767 24.5356 7.86165 24.6415ZM7.10732 23.6688C7.00145 23.735 7.00145 23.907 7.10732 24.0592C7.21319 24.2114 7.39185 24.2775 7.47787 24.2114C7.58374 24.1254 7.58374 23.9533 7.47787 23.8011C7.38523 23.6489 7.21319 23.5828 7.10732 23.6688Z" fill="#FFFFFE"/>
</svg>
