<svg width="32" height="32" viewBox="0 0 32 32" fill="none" xmlns="http://www.w3.org/2000/svg">
<path d="M7.16302 32H0.528583V10.6352H7.16302V32ZM3.84223 7.72089C1.72075 7.72089 0 5.9637 0 3.84223C1.51846e-08 2.82321 0.404805 1.84592 1.12536 1.12536C1.84592 0.404805 2.82321 0 3.84223 0C4.86125 0 5.83854 0.404805 6.55909 1.12536C7.27965 1.84592 7.68446 2.82321 7.68446 3.84223C7.68446 5.9637 5.96299 7.72089 3.84223 7.72089ZM31.9936 32H25.3734V21.5998C25.3734 19.1211 25.3234 15.9425 21.9241 15.9425C18.4747 15.9425 17.9461 18.6354 17.9461 21.4212V32H11.3188V10.6352H17.6818V13.5496H17.7747C18.6604 11.871 20.824 10.0995 24.052 10.0995C30.7664 10.0995 32.0007 14.521 32.0007 20.264V32H31.9936Z" fill="#FFFFFE"/>
</svg>
