<svg width="328" height="246" viewBox="0 0 328 246" fill="none" xmlns="http://www.w3.org/2000/svg">
<g clip-path="url(#clip0_244_234)">
<path d="M328 230.909H0V231.085H328V230.909Z" fill="#EBEBEB"/>
<path d="M295.134 242.257H273.408V242.434H295.134V242.257Z" fill="#EBEBEB"/>
<path d="M217.28 244.175H211.58V244.352H217.28V244.175Z" fill="#EBEBEB"/>
<path d="M272.751 235.71H260.163V235.887H272.751V235.71Z" fill="#EBEBEB"/>
<path d="M62.7447 236.897H34.4133V237.074H62.7447V236.897Z" fill="#EBEBEB"/>
<path d="M72.7423 236.897H68.5896V237.074H72.7423V236.897Z" fill="#EBEBEB"/>
<path d="M147.697 239.871H86.2434V240.047H147.697V239.871Z" fill="#EBEBEB"/>
<path d="M155.471 199.451H28.805C27.8127 199.45 26.8614 199.025 26.1602 198.271C25.4589 197.516 25.0649 196.493 25.0649 195.426V3.99641C25.071 2.93424 25.4677 1.91779 26.1685 1.16901C26.8692 0.420242 27.817 -1.9948e-05 28.805 7.10153e-10H155.471C156.464 7.10153e-10 157.416 0.424079 158.118 1.17894C158.821 1.93381 159.215 2.95762 159.215 4.02516V195.426C159.215 196.493 158.821 197.517 158.118 198.272C157.416 199.027 156.464 199.451 155.471 199.451ZM28.805 0.139649C28.3346 0.140187 27.8689 0.240403 27.4346 0.434565C27.0002 0.628728 26.6057 0.91303 26.2736 1.27122C25.9415 1.62941 25.6783 2.05445 25.4991 2.52206C25.3199 2.98967 25.2282 3.49067 25.2292 3.99641V195.426C25.2292 196.446 25.6058 197.424 26.2763 198.146C26.9468 198.867 27.8563 199.273 28.805 199.274H155.471C156.42 199.273 157.33 198.867 158.001 198.146C158.672 197.424 159.05 196.446 159.051 195.426V3.99641C159.05 2.97605 158.672 1.99779 158.001 1.27628C157.33 0.554771 156.42 0.148951 155.471 0.147863L28.805 0.139649Z" fill="#EBEBEB"/>
<path d="M297.373 199.451H170.695C169.703 199.449 168.752 199.024 168.05 198.27C167.348 197.515 166.953 196.493 166.951 195.426V3.9965C166.962 2.93605 167.361 1.92295 168.062 1.17652C168.763 0.430086 169.709 0.0103942 170.695 0.00830078H297.373C298.357 0.0115096 299.301 0.432075 299.999 1.17873C300.697 1.92538 301.093 2.93788 301.101 3.9965V195.426C301.101 196.491 300.709 197.512 300.01 198.266C299.311 199.021 298.363 199.447 297.373 199.451ZM170.695 0.139735C170.223 0.138654 169.756 0.237615 169.32 0.430952C168.884 0.624289 168.487 0.908205 168.154 1.26645C167.82 1.62469 167.555 2.05022 167.374 2.51868C167.193 2.98714 167.1 3.48933 167.1 3.9965V195.426C167.102 196.446 167.48 197.424 168.151 198.145C168.822 198.866 169.731 199.272 170.68 199.274H297.373C298.322 199.273 299.232 198.868 299.904 198.146C300.576 197.425 300.954 196.447 300.956 195.426V3.9965C300.956 2.97433 300.579 1.99397 299.907 1.27081C299.235 0.54764 298.323 0.140823 297.373 0.139735H170.695Z" fill="#EBEBEB"/>
<path d="M292.196 43.8538H133.26V208.565H292.196V43.8538Z" fill="#E0E0E0"/>
<path d="M292.196 46.8438H135.812V205.686H292.196V46.8438Z" fill="#F5F5F5"/>
<path d="M136.965 167.221V119.436H141.577V113.123L151.968 107.907V101.446H153.698V119.436H155.433V167.221H157.74V142.396H162.936V129.368H164.667V167.221H168.701V152.944H171.589V149.223H177.938V136.194H181.403V127.507H185.441V114.475H187.176V127.507H191.218V136.194H194.675V149.223H201.024V152.944H203.909V167.221H207.374V149.223H213.723V109.513H215.457V105.168H229.302V109.513H232.19V138.059H243.735V141.152H247.77V143.016H243.735V154.188H255.853V116.956H258.161V109.513H263.933V80.9714H265.664V109.513H269.706V116.956H292.196V205.686H135.812V167.221H136.965Z" fill="#E6E6E6"/>
<path d="M280.177 118.903H278.542V120.661H280.177V118.903Z" fill="#F0F0F0"/>
<path d="M280.177 121.852H278.542V123.609H280.177V121.852Z" fill="#F0F0F0"/>
<path d="M280.177 133.644H278.542V135.401H280.177V133.644Z" fill="#F0F0F0"/>
<path d="M280.177 136.584H278.542V138.342H280.177V136.584Z" fill="#F0F0F0"/>
<path d="M280.177 139.529H278.542V141.287H280.177V139.529Z" fill="#F0F0F0"/>
<path d="M280.177 148.376H278.542V150.134H280.177V148.376Z" fill="#F0F0F0"/>
<path d="M280.177 151.326H278.542V153.084H280.177V151.326Z" fill="#F0F0F0"/>
<path d="M277.579 130.695H275.944V132.453H277.579V130.695Z" fill="#F0F0F0"/>
<path d="M277.579 133.644H275.944V135.401H277.579V133.644Z" fill="#F0F0F0"/>
<path d="M277.579 136.584H275.944V138.342H277.579V136.584Z" fill="#F0F0F0"/>
<path d="M277.579 139.529H275.944V141.287H277.579V139.529Z" fill="#F0F0F0"/>
<path d="M277.579 142.479H275.944V144.236H277.579V142.479Z" fill="#F0F0F0"/>
<path d="M277.579 148.376H275.944V150.134H277.579V148.376Z" fill="#F0F0F0"/>
<path d="M277.579 151.326H275.944V153.084H277.579V151.326Z" fill="#F0F0F0"/>
<path d="M274.982 118.903H273.347V120.661H274.982V118.903Z" fill="#F0F0F0"/>
<path d="M274.982 121.852H273.347V123.609H274.982V121.852Z" fill="#F0F0F0"/>
<path d="M274.982 124.796H273.347V126.554H274.982V124.796Z" fill="#F0F0F0"/>
<path d="M274.982 127.746H273.347V129.504H274.982V127.746Z" fill="#F0F0F0"/>
<path d="M274.982 130.695H273.347V132.453H274.982V130.695Z" fill="#F0F0F0"/>
<path d="M274.982 133.644H273.347V135.401H274.982V133.644Z" fill="#F0F0F0"/>
<path d="M274.982 136.584H273.347V138.342H274.982V136.584Z" fill="#F0F0F0"/>
<path d="M274.982 139.529H273.347V141.287H274.982V139.529Z" fill="#F0F0F0"/>
<path d="M274.982 142.479H273.347V144.236H274.982V142.479Z" fill="#F0F0F0"/>
<path d="M274.982 145.427H273.347V147.185H274.982V145.427Z" fill="#F0F0F0"/>
<path d="M274.982 151.326H273.347V153.084H274.982V151.326Z" fill="#F0F0F0"/>
<path d="M272.384 118.903H270.749V120.661H272.384V118.903Z" fill="#F0F0F0"/>
<path d="M272.384 121.852H270.749V123.609H272.384V121.852Z" fill="#F0F0F0"/>
<path d="M272.384 124.796H270.749V126.554H272.384V124.796Z" fill="#F0F0F0"/>
<path d="M272.384 127.746H270.749V129.504H272.384V127.746Z" fill="#F0F0F0"/>
<path d="M272.384 130.695H270.749V132.453H272.384V130.695Z" fill="#F0F0F0"/>
<path d="M272.384 133.644H270.749V135.401H272.384V133.644Z" fill="#F0F0F0"/>
<path d="M272.384 136.584H270.749V138.342H272.384V136.584Z" fill="#F0F0F0"/>
<path d="M272.384 163.118H270.749V164.876H272.384V163.118Z" fill="#F0F0F0"/>
<path d="M269.786 118.903H268.151V120.661H269.786V118.903Z" fill="#F0F0F0"/>
<path d="M269.786 121.852H268.151V123.609H269.786V121.852Z" fill="#F0F0F0"/>
<path d="M269.786 124.796H268.151V126.554H269.786V124.796Z" fill="#F0F0F0"/>
<path d="M269.786 127.746H268.151V129.504H269.786V127.746Z" fill="#F0F0F0"/>
<path d="M269.786 130.695H268.151V132.453H269.786V130.695Z" fill="#F0F0F0"/>
<path d="M269.786 133.644H268.151V135.401H269.786V133.644Z" fill="#F0F0F0"/>
<path d="M269.786 136.584H268.151V138.342H269.786V136.584Z" fill="#F0F0F0"/>
<path d="M269.786 139.529H268.151V141.287H269.786V139.529Z" fill="#F0F0F0"/>
<path d="M269.786 157.22H268.151V158.978H269.786V157.22Z" fill="#F0F0F0"/>
<path d="M269.786 160.169H268.151V161.927H269.786V160.169Z" fill="#F0F0F0"/>
<path d="M269.786 163.118H268.151V164.876H269.786V163.118Z" fill="#F0F0F0"/>
<path d="M269.786 166.059H268.151V167.817H269.786V166.059Z" fill="#F0F0F0"/>
<path d="M269.786 177.851H268.151V179.609H269.786V177.851Z" fill="#F0F0F0"/>
<path d="M267.188 118.903H265.553V120.661H267.188V118.903Z" fill="#F0F0F0"/>
<path d="M267.188 121.852H265.553V123.609H267.188V121.852Z" fill="#F0F0F0"/>
<path d="M267.188 124.796H265.553V126.554H267.188V124.796Z" fill="#F0F0F0"/>
<path d="M267.188 127.746H265.553V129.504H267.188V127.746Z" fill="#F0F0F0"/>
<path d="M267.188 130.695H265.553V132.453H267.188V130.695Z" fill="#F0F0F0"/>
<path d="M267.188 133.644H265.553V135.401H267.188V133.644Z" fill="#F0F0F0"/>
<path d="M267.188 136.584H265.553V138.342H267.188V136.584Z" fill="#F0F0F0"/>
<path d="M267.188 139.529H265.553V141.287H267.188V139.529Z" fill="#F0F0F0"/>
<path d="M267.188 142.479H265.553V144.236H267.188V142.479Z" fill="#F0F0F0"/>
<path d="M267.188 145.427H265.553V147.185H267.188V145.427Z" fill="#F0F0F0"/>
<path d="M267.188 154.271H265.553V156.028H267.188V154.271Z" fill="#F0F0F0"/>
<path d="M267.188 157.22H265.553V158.978H267.188V157.22Z" fill="#F0F0F0"/>
<path d="M267.188 160.169H265.553V161.927H267.188V160.169Z" fill="#F0F0F0"/>
<path d="M267.188 163.118H265.553V164.876H267.188V163.118Z" fill="#F0F0F0"/>
<path d="M267.188 166.059H265.553V167.817H267.188V166.059Z" fill="#F0F0F0"/>
<path d="M267.188 177.851H265.553V179.609H267.188V177.851Z" fill="#F0F0F0"/>
<path d="M264.59 118.903H262.955V120.661H264.59V118.903Z" fill="#F0F0F0"/>
<path d="M264.59 121.852H262.955V123.609H264.59V121.852Z" fill="#F0F0F0"/>
<path d="M264.59 124.796H262.955V126.554H264.59V124.796Z" fill="#F0F0F0"/>
<path d="M264.59 127.746H262.955V129.504H264.59V127.746Z" fill="#F0F0F0"/>
<path d="M264.59 130.695H262.955V132.453H264.59V130.695Z" fill="#F0F0F0"/>
<path d="M264.59 133.644H262.955V135.401H264.59V133.644Z" fill="#F0F0F0"/>
<path d="M264.59 136.584H262.955V138.342H264.59V136.584Z" fill="#F0F0F0"/>
<path d="M264.59 139.529H262.955V141.287H264.59V139.529Z" fill="#F0F0F0"/>
<path d="M264.59 142.479H262.955V144.236H264.59V142.479Z" fill="#F0F0F0"/>
<path d="M264.59 145.427H262.955V147.185H264.59V145.427Z" fill="#F0F0F0"/>
<path d="M264.59 148.376H262.955V150.134H264.59V148.376Z" fill="#F0F0F0"/>
<path d="M264.59 151.326H262.955V153.084H264.59V151.326Z" fill="#F0F0F0"/>
<path d="M264.59 154.271H262.955V156.028H264.59V154.271Z" fill="#F0F0F0"/>
<path d="M264.59 157.22H262.955V158.978H264.59V157.22Z" fill="#F0F0F0"/>
<path d="M264.59 160.169H262.955V161.927H264.59V160.169Z" fill="#F0F0F0"/>
<path d="M264.59 163.118H262.955V164.876H264.59V163.118Z" fill="#F0F0F0"/>
<path d="M264.59 166.059H262.955V167.817H264.59V166.059Z" fill="#F0F0F0"/>
<path d="M264.59 169.003H262.955V170.761H264.59V169.003Z" fill="#F0F0F0"/>
<path d="M261.993 118.903H260.358V120.661H261.993V118.903Z" fill="#F0F0F0"/>
<path d="M261.993 121.852H260.358V123.609H261.993V121.852Z" fill="#F0F0F0"/>
<path d="M261.993 124.796H260.358V126.554H261.993V124.796Z" fill="#F0F0F0"/>
<path d="M261.993 127.746H260.358V129.504H261.993V127.746Z" fill="#F0F0F0"/>
<path d="M261.993 130.695H260.358V132.453H261.993V130.695Z" fill="#F0F0F0"/>
<path d="M261.993 133.644H260.358V135.401H261.993V133.644Z" fill="#F0F0F0"/>
<path d="M261.993 136.584H260.358V138.342H261.993V136.584Z" fill="#F0F0F0"/>
<path d="M261.993 139.529H260.358V141.287H261.993V139.529Z" fill="#F0F0F0"/>
<path d="M261.993 142.479H260.358V144.236H261.993V142.479Z" fill="#F0F0F0"/>
<path d="M261.993 145.427H260.358V147.185H261.993V145.427Z" fill="#F0F0F0"/>
<path d="M261.993 154.271H260.358V156.028H261.993V154.271Z" fill="#F0F0F0"/>
<path d="M261.993 157.22H260.358V158.978H261.993V157.22Z" fill="#F0F0F0"/>
<path d="M261.993 160.169H260.358V161.927H261.993V160.169Z" fill="#F0F0F0"/>
<path d="M261.993 163.118H260.358V164.876H261.993V163.118Z" fill="#F0F0F0"/>
<path d="M259.402 118.903H257.767V120.661H259.402V118.903Z" fill="#F0F0F0"/>
<path d="M259.402 121.852H257.767V123.609H259.402V121.852Z" fill="#F0F0F0"/>
<path d="M259.402 124.796H257.767V126.554H259.402V124.796Z" fill="#F0F0F0"/>
<path d="M259.402 127.746H257.767V129.504H259.402V127.746Z" fill="#F0F0F0"/>
<path d="M259.402 130.695H257.767V132.453H259.402V130.695Z" fill="#F0F0F0"/>
<path d="M259.402 133.644H257.767V135.401H259.402V133.644Z" fill="#F0F0F0"/>
<path d="M259.402 136.584H257.767V138.342H259.402V136.584Z" fill="#F0F0F0"/>
<path d="M259.402 139.529H257.767V141.287H259.402V139.529Z" fill="#F0F0F0"/>
<path d="M259.402 142.479H257.767V144.236H259.402V142.479Z" fill="#F0F0F0"/>
<path d="M259.402 145.427H257.767V147.185H259.402V145.427Z" fill="#F0F0F0"/>
<path d="M259.402 154.271H257.767V156.028H259.402V154.271Z" fill="#F0F0F0"/>
<path d="M259.402 157.22H257.767V158.978H259.402V157.22Z" fill="#F0F0F0"/>
<path d="M259.402 160.169H257.767V161.927H259.402V160.169Z" fill="#F0F0F0"/>
<path d="M230.158 111.25H228.523V113.008H230.158V111.25Z" fill="#F0F0F0"/>
<path d="M230.158 114.196H228.523V115.953H230.158V114.196Z" fill="#F0F0F0"/>
<path d="M230.158 117.145H228.523V118.902H230.158V117.145Z" fill="#F0F0F0"/>
<path d="M230.158 120.094H228.523V121.851H230.158V120.094Z" fill="#F0F0F0"/>
<path d="M230.158 123.043H228.523V124.801H230.158V123.043Z" fill="#F0F0F0"/>
<path d="M230.158 125.992H228.523V127.75H230.158V125.992Z" fill="#F0F0F0"/>
<path d="M230.158 128.933H228.523V130.691H230.158V128.933Z" fill="#F0F0F0"/>
<path d="M230.158 131.877H228.523V133.635H230.158V131.877Z" fill="#F0F0F0"/>
<path d="M230.158 140.725H228.523V142.483H230.158V140.725Z" fill="#F0F0F0"/>
<path d="M230.158 143.67H228.523V145.428H230.158V143.67Z" fill="#F0F0F0"/>
<path d="M227.56 111.25H225.925V113.008H227.56V111.25Z" fill="#F0F0F0"/>
<path d="M227.56 114.196H225.925V115.953H227.56V114.196Z" fill="#F0F0F0"/>
<path d="M227.56 117.145H225.925V118.902H227.56V117.145Z" fill="#F0F0F0"/>
<path d="M227.56 120.094H225.925V121.851H227.56V120.094Z" fill="#F0F0F0"/>
<path d="M227.56 123.043H225.925V124.801H227.56V123.043Z" fill="#F0F0F0"/>
<path d="M227.56 125.992H225.925V127.75H227.56V125.992Z" fill="#F0F0F0"/>
<path d="M227.56 128.933H225.925V130.691H227.56V128.933Z" fill="#F0F0F0"/>
<path d="M227.56 131.877H225.925V133.635H227.56V131.877Z" fill="#F0F0F0"/>
<path d="M227.56 143.67H225.925V145.428H227.56V143.67Z" fill="#F0F0F0"/>
<path d="M224.962 111.25H223.327V113.008H224.962V111.25Z" fill="#F0F0F0"/>
<path d="M224.962 114.196H223.327V115.953H224.962V114.196Z" fill="#F0F0F0"/>
<path d="M224.962 117.145H223.327V118.902H224.962V117.145Z" fill="#F0F0F0"/>
<path d="M224.962 120.094H223.327V121.851H224.962V120.094Z" fill="#F0F0F0"/>
<path d="M224.962 123.043H223.327V124.801H224.962V123.043Z" fill="#F0F0F0"/>
<path d="M224.962 125.992H223.327V127.75H224.962V125.992Z" fill="#F0F0F0"/>
<path d="M224.962 128.933H223.327V130.691H224.962V128.933Z" fill="#F0F0F0"/>
<path d="M224.962 131.877H223.327V133.635H224.962V131.877Z" fill="#F0F0F0"/>
<path d="M222.365 111.25H220.729V113.008H222.365V111.25Z" fill="#F0F0F0"/>
<path d="M222.365 114.196H220.729V115.953H222.365V114.196Z" fill="#F0F0F0"/>
<path d="M222.365 117.145H220.729V118.902H222.365V117.145Z" fill="#F0F0F0"/>
<path d="M222.365 120.094H220.729V121.851H222.365V120.094Z" fill="#F0F0F0"/>
<path d="M222.365 123.043H220.729V124.801H222.365V123.043Z" fill="#F0F0F0"/>
<path d="M222.365 125.992H220.729V127.75H222.365V125.992Z" fill="#F0F0F0"/>
<path d="M222.365 131.877H220.729V133.635H222.365V131.877Z" fill="#F0F0F0"/>
<path d="M222.365 134.826H220.729V136.584H222.365V134.826Z" fill="#F0F0F0"/>
<path d="M222.365 143.67H220.729V145.428H222.365V143.67Z" fill="#F0F0F0"/>
<path d="M222.365 146.619H220.729V148.377H222.365V146.619Z" fill="#F0F0F0"/>
<path d="M222.365 149.568H220.729V151.326H222.365V149.568Z" fill="#F0F0F0"/>
<path d="M222.365 152.517H220.729V154.275H222.365V152.517Z" fill="#F0F0F0"/>
<path d="M222.365 155.462H220.729V157.22H222.365V155.462Z" fill="#F0F0F0"/>
<path d="M222.365 158.407H220.729V160.165H222.365V158.407Z" fill="#F0F0F0"/>
<path d="M222.365 161.352H220.729V163.109H222.365V161.352Z" fill="#F0F0F0"/>
<path d="M219.767 111.25H218.132V113.008H219.767V111.25Z" fill="#F0F0F0"/>
<path d="M219.767 114.196H218.132V115.953H219.767V114.196Z" fill="#F0F0F0"/>
<path d="M219.767 117.145H218.132V118.902H219.767V117.145Z" fill="#F0F0F0"/>
<path d="M219.767 120.094H218.132V121.851H219.767V120.094Z" fill="#F0F0F0"/>
<path d="M219.767 123.043H218.132V124.801H219.767V123.043Z" fill="#F0F0F0"/>
<path d="M219.767 125.992H218.132V127.75H219.767V125.992Z" fill="#F0F0F0"/>
<path d="M219.767 134.826H218.132V136.584H219.767V134.826Z" fill="#F0F0F0"/>
<path d="M219.767 137.776H218.132V139.534H219.767V137.776Z" fill="#F0F0F0"/>
<path d="M219.767 140.725H218.132V142.483H219.767V140.725Z" fill="#F0F0F0"/>
<path d="M219.767 143.67H218.132V145.428H219.767V143.67Z" fill="#F0F0F0"/>
<path d="M219.767 146.619H218.132V148.377H219.767V146.619Z" fill="#F0F0F0"/>
<path d="M219.767 149.568H218.132V151.326H219.767V149.568Z" fill="#F0F0F0"/>
<path d="M219.767 152.517H218.132V154.275H219.767V152.517Z" fill="#F0F0F0"/>
<path d="M219.767 155.462H218.132V157.22H219.767V155.462Z" fill="#F0F0F0"/>
<path d="M219.767 158.407H218.132V160.165H219.767V158.407Z" fill="#F0F0F0"/>
<path d="M219.767 161.352H218.132V163.109H219.767V161.352Z" fill="#F0F0F0"/>
<path d="M219.767 164.301H218.132V166.058H219.767V164.301Z" fill="#F0F0F0"/>
<path d="M219.767 170.199H218.132V171.957H219.767V170.199Z" fill="#F0F0F0"/>
<path d="M217.169 111.25H215.534V113.008H217.169V111.25Z" fill="#F0F0F0"/>
<path d="M217.169 114.196H215.534V115.953H217.169V114.196Z" fill="#F0F0F0"/>
<path d="M217.169 117.145H215.534V118.902H217.169V117.145Z" fill="#F0F0F0"/>
<path d="M217.169 120.094H215.534V121.851H217.169V120.094Z" fill="#F0F0F0"/>
<path d="M217.169 123.043H215.534V124.801H217.169V123.043Z" fill="#F0F0F0"/>
<path d="M217.169 125.992H215.534V127.75H217.169V125.992Z" fill="#F0F0F0"/>
<path d="M217.169 134.826H215.534V136.584H217.169V134.826Z" fill="#F0F0F0"/>
<path d="M217.169 137.776H215.534V139.534H217.169V137.776Z" fill="#F0F0F0"/>
<path d="M217.169 140.725H215.534V142.483H217.169V140.725Z" fill="#F0F0F0"/>
<path d="M217.169 143.67H215.534V145.428H217.169V143.67Z" fill="#F0F0F0"/>
<path d="M217.169 152.517H215.534V154.275H217.169V152.517Z" fill="#F0F0F0"/>
<path d="M217.169 155.462H215.534V157.22H217.169V155.462Z" fill="#F0F0F0"/>
<path d="M217.169 158.407H215.534V160.165H217.169V158.407Z" fill="#F0F0F0"/>
<path d="M217.169 161.352H215.534V163.109H217.169V161.352Z" fill="#F0F0F0"/>
<path d="M217.169 164.301H215.534V166.058H217.169V164.301Z" fill="#F0F0F0"/>
<path d="M217.169 170.199H215.534V171.957H217.169V170.199Z" fill="#F0F0F0"/>
<path d="M217.169 173.144H215.534V174.901H217.169V173.144Z" fill="#F0F0F0"/>
<path d="M193.605 138.659H191.97V140.417H193.605V138.659Z" fill="#F0F0F0"/>
<path d="M193.605 141.604H191.97V143.361H193.605V141.604Z" fill="#F0F0F0"/>
<path d="M193.605 144.553H191.97V146.311H193.605V144.553Z" fill="#F0F0F0"/>
<path d="M193.605 147.493H191.97V149.251H193.605V147.493Z" fill="#F0F0F0"/>
<path d="M193.605 150.443H191.97V152.201H193.605V150.443Z" fill="#F0F0F0"/>
<path d="M193.605 153.392H191.97V155.15H193.605V153.392Z" fill="#F0F0F0"/>
<path d="M193.605 156.336H191.97V158.094H193.605V156.336Z" fill="#F0F0F0"/>
<path d="M193.605 165.184H191.97V166.942H193.605V165.184Z" fill="#F0F0F0"/>
<path d="M193.605 168.129H191.97V169.887H193.605V168.129Z" fill="#F0F0F0"/>
<path d="M193.605 171.078H191.97V172.836H193.605V171.078Z" fill="#F0F0F0"/>
<path d="M191.008 138.659H189.373V140.417H191.008V138.659Z" fill="#F0F0F0"/>
<path d="M191.008 141.604H189.373V143.361H191.008V141.604Z" fill="#F0F0F0"/>
<path d="M191.008 144.553H189.373V146.311H191.008V144.553Z" fill="#F0F0F0"/>
<path d="M191.008 147.493H189.373V149.251H191.008V147.493Z" fill="#F0F0F0"/>
<path d="M191.008 150.443H189.373V152.201H191.008V150.443Z" fill="#F0F0F0"/>
<path d="M191.008 153.392H189.373V155.15H191.008V153.392Z" fill="#F0F0F0"/>
<path d="M191.008 156.336H189.373V158.094H191.008V156.336Z" fill="#F0F0F0"/>
<path d="M188.41 138.659H186.775V140.417H188.41V138.659Z" fill="#F0F0F0"/>
<path d="M188.41 141.604H186.775V143.361H188.41V141.604Z" fill="#F0F0F0"/>
<path d="M188.41 144.553H186.775V146.311H188.41V144.553Z" fill="#F0F0F0"/>
<path d="M188.41 147.493H186.775V149.251H188.41V147.493Z" fill="#F0F0F0"/>
<path d="M188.41 150.443H186.775V152.201H188.41V150.443Z" fill="#F0F0F0"/>
<path d="M188.41 153.392H186.775V155.15H188.41V153.392Z" fill="#F0F0F0"/>
<path d="M188.41 156.336H186.775V158.094H188.41V156.336Z" fill="#F0F0F0"/>
<path d="M185.812 138.659H184.177V140.417H185.812V138.659Z" fill="#F0F0F0"/>
<path d="M185.812 141.604H184.177V143.361H185.812V141.604Z" fill="#F0F0F0"/>
<path d="M185.812 144.553H184.177V146.311H185.812V144.553Z" fill="#F0F0F0"/>
<path d="M185.812 147.493H184.177V149.251H185.812V147.493Z" fill="#F0F0F0"/>
<path d="M185.812 150.443H184.177V152.201H185.812V150.443Z" fill="#F0F0F0"/>
<path d="M185.812 153.392H184.177V155.15H185.812V153.392Z" fill="#F0F0F0"/>
<path d="M185.812 156.336H184.177V158.094H185.812V156.336Z" fill="#F0F0F0"/>
<path d="M185.812 159.286H184.177V161.044H185.812V159.286Z" fill="#F0F0F0"/>
<path d="M185.812 162.235H184.177V163.993H185.812V162.235Z" fill="#F0F0F0"/>
<path d="M185.812 165.184H184.177V166.942H185.812V165.184Z" fill="#F0F0F0"/>
<path d="M185.812 168.129H184.177V169.887H185.812V168.129Z" fill="#F0F0F0"/>
<path d="M183.214 138.659H181.579V140.417H183.214V138.659Z" fill="#F0F0F0"/>
<path d="M183.214 141.604H181.579V143.361H183.214V141.604Z" fill="#F0F0F0"/>
<path d="M183.214 144.553H181.579V146.311H183.214V144.553Z" fill="#F0F0F0"/>
<path d="M183.214 147.493H181.579V149.251H183.214V147.493Z" fill="#F0F0F0"/>
<path d="M183.214 150.443H181.579V152.201H183.214V150.443Z" fill="#F0F0F0"/>
<path d="M183.214 153.392H181.579V155.15H183.214V153.392Z" fill="#F0F0F0"/>
<path d="M183.214 156.336H181.579V158.094H183.214V156.336Z" fill="#F0F0F0"/>
<path d="M183.214 159.286H181.579V161.044H183.214V159.286Z" fill="#F0F0F0"/>
<path d="M183.214 162.235H181.579V163.993H183.214V162.235Z" fill="#F0F0F0"/>
<path d="M183.214 165.184H181.579V166.942H183.214V165.184Z" fill="#F0F0F0"/>
<path d="M183.214 168.129H181.579V169.887H183.214V168.129Z" fill="#F0F0F0"/>
<path d="M183.214 171.078H181.579V172.836H183.214V171.078Z" fill="#F0F0F0"/>
<path d="M183.214 179.917H181.579V181.674H183.214V179.917Z" fill="#F0F0F0"/>
<path d="M183.214 182.866H181.579V184.624H183.214V182.866Z" fill="#F0F0F0"/>
<path d="M180.616 138.659H178.981V140.417H180.616V138.659Z" fill="#F0F0F0"/>
<path d="M180.616 141.604H178.981V143.361H180.616V141.604Z" fill="#F0F0F0"/>
<path d="M180.616 144.553H178.981V146.311H180.616V144.553Z" fill="#F0F0F0"/>
<path d="M180.616 153.392H178.981V155.15H180.616V153.392Z" fill="#F0F0F0"/>
<path d="M180.616 156.336H178.981V158.094H180.616V156.336Z" fill="#F0F0F0"/>
<path d="M180.616 159.286H178.981V161.044H180.616V159.286Z" fill="#F0F0F0"/>
<path d="M180.616 162.235H178.981V163.993H180.616V162.235Z" fill="#F0F0F0"/>
<path d="M180.616 165.184H178.981V166.942H180.616V165.184Z" fill="#F0F0F0"/>
<path d="M180.616 168.129H178.981V169.887H180.616V168.129Z" fill="#F0F0F0"/>
<path d="M180.616 171.078H178.981V172.836H180.616V171.078Z" fill="#F0F0F0"/>
<path d="M180.616 179.917H178.981V181.674H180.616V179.917Z" fill="#F0F0F0"/>
<path d="M180.616 182.866H178.981V184.624H180.616V182.866Z" fill="#F0F0F0"/>
<path d="M180.616 185.811H178.981V187.568H180.616V185.811Z" fill="#F0F0F0"/>
<path d="M153.4 120.969H151.765V122.726H153.4V120.969Z" fill="#F0F0F0"/>
<path d="M153.4 123.917H151.765V125.675H153.4V123.917Z" fill="#F0F0F0"/>
<path d="M153.4 126.863H151.765V128.62H153.4V126.863Z" fill="#F0F0F0"/>
<path d="M153.4 129.812H151.765V131.569H153.4V129.812Z" fill="#F0F0F0"/>
<path d="M153.4 132.76H151.765V134.518H153.4V132.76Z" fill="#F0F0F0"/>
<path d="M153.4 135.71H151.765V137.468H153.4V135.71Z" fill="#F0F0F0"/>
<path d="M153.4 138.659H151.765V140.417H153.4V138.659Z" fill="#F0F0F0"/>
<path d="M153.4 141.604H151.765V143.361H153.4V141.604Z" fill="#F0F0F0"/>
<path d="M153.4 144.553H151.765V146.311H153.4V144.553Z" fill="#F0F0F0"/>
<path d="M153.4 147.493H151.765V149.251H153.4V147.493Z" fill="#F0F0F0"/>
<path d="M153.4 150.443H151.765V152.201H153.4V150.443Z" fill="#F0F0F0"/>
<path d="M153.4 153.392H151.765V155.15H153.4V153.392Z" fill="#F0F0F0"/>
<path d="M153.4 156.336H151.765V158.094H153.4V156.336Z" fill="#F0F0F0"/>
<path d="M153.4 159.286H151.765V161.044H153.4V159.286Z" fill="#F0F0F0"/>
<path d="M153.4 162.235H151.765V163.993H153.4V162.235Z" fill="#F0F0F0"/>
<path d="M153.4 165.184H151.765V166.942H153.4V165.184Z" fill="#F0F0F0"/>
<path d="M153.4 168.129H151.765V169.887H153.4V168.129Z" fill="#F0F0F0"/>
<path d="M153.4 171.078H151.765V172.836H153.4V171.078Z" fill="#F0F0F0"/>
<path d="M153.4 174.027H151.765V175.785H153.4V174.027Z" fill="#F0F0F0"/>
<path d="M153.4 176.968H151.765V178.725H153.4V176.968Z" fill="#F0F0F0"/>
<path d="M153.4 179.917H151.765V181.674H153.4V179.917Z" fill="#F0F0F0"/>
<path d="M153.4 182.866H151.765V184.624H153.4V182.866Z" fill="#F0F0F0"/>
<path d="M153.4 185.811H151.765V187.568H153.4V185.811Z" fill="#F0F0F0"/>
<path d="M150.803 120.969H149.167V122.726H150.803V120.969Z" fill="#F0F0F0"/>
<path d="M150.803 123.917H149.167V125.675H150.803V123.917Z" fill="#F0F0F0"/>
<path d="M150.803 126.863H149.167V128.62H150.803V126.863Z" fill="#F0F0F0"/>
<path d="M150.803 129.812H149.167V131.569H150.803V129.812Z" fill="#F0F0F0"/>
<path d="M150.803 132.76H149.167V134.518H150.803V132.76Z" fill="#F0F0F0"/>
<path d="M150.803 135.71H149.167V137.468H150.803V135.71Z" fill="#F0F0F0"/>
<path d="M150.803 138.659H149.167V140.417H150.803V138.659Z" fill="#F0F0F0"/>
<path d="M150.803 141.604H149.167V143.361H150.803V141.604Z" fill="#F0F0F0"/>
<path d="M150.803 144.553H149.167V146.311H150.803V144.553Z" fill="#F0F0F0"/>
<path d="M150.803 147.493H149.167V149.251H150.803V147.493Z" fill="#F0F0F0"/>
<path d="M150.803 150.443H149.167V152.201H150.803V150.443Z" fill="#F0F0F0"/>
<path d="M150.803 153.392H149.167V155.15H150.803V153.392Z" fill="#F0F0F0"/>
<path d="M150.803 156.336H149.167V158.094H150.803V156.336Z" fill="#F0F0F0"/>
<path d="M150.803 159.286H149.167V161.044H150.803V159.286Z" fill="#F0F0F0"/>
<path d="M150.803 162.235H149.167V163.993H150.803V162.235Z" fill="#F0F0F0"/>
<path d="M150.803 165.184H149.167V166.942H150.803V165.184Z" fill="#F0F0F0"/>
<path d="M150.803 168.129H149.167V169.887H150.803V168.129Z" fill="#F0F0F0"/>
<path d="M150.803 171.078H149.167V172.836H150.803V171.078Z" fill="#F0F0F0"/>
<path d="M150.803 174.027H149.167V175.785H150.803V174.027Z" fill="#F0F0F0"/>
<path d="M148.205 120.969H146.57V122.726H148.205V120.969Z" fill="#F0F0F0"/>
<path d="M148.205 123.917H146.57V125.675H148.205V123.917Z" fill="#F0F0F0"/>
<path d="M148.205 126.863H146.57V128.62H148.205V126.863Z" fill="#F0F0F0"/>
<path d="M148.205 129.812H146.57V131.569H148.205V129.812Z" fill="#F0F0F0"/>
<path d="M148.205 132.76H146.57V134.518H148.205V132.76Z" fill="#F0F0F0"/>
<path d="M148.205 135.71H146.57V137.468H148.205V135.71Z" fill="#F0F0F0"/>
<path d="M148.205 138.659H146.57V140.417H148.205V138.659Z" fill="#F0F0F0"/>
<path d="M148.205 141.604H146.57V143.361H148.205V141.604Z" fill="#F0F0F0"/>
<path d="M148.205 144.553H146.57V146.311H148.205V144.553Z" fill="#F0F0F0"/>
<path d="M148.205 147.493H146.57V149.251H148.205V147.493Z" fill="#F0F0F0"/>
<path d="M148.205 150.443H146.57V152.201H148.205V150.443Z" fill="#F0F0F0"/>
<path d="M148.205 153.392H146.57V155.15H148.205V153.392Z" fill="#F0F0F0"/>
<path d="M148.205 156.336H146.57V158.094H148.205V156.336Z" fill="#F0F0F0"/>
<path d="M148.205 159.286H146.57V161.044H148.205V159.286Z" fill="#F0F0F0"/>
<path d="M148.205 162.235H146.57V163.993H148.205V162.235Z" fill="#F0F0F0"/>
<path d="M148.205 165.184H146.57V166.942H148.205V165.184Z" fill="#F0F0F0"/>
<path d="M148.205 168.129H146.57V169.887H148.205V168.129Z" fill="#F0F0F0"/>
<path d="M148.205 171.078H146.57V172.836H148.205V171.078Z" fill="#F0F0F0"/>
<path d="M148.205 174.027H146.57V175.785H148.205V174.027Z" fill="#F0F0F0"/>
<path d="M145.607 120.969H143.972V122.726H145.607V120.969Z" fill="#F0F0F0"/>
<path d="M145.607 123.917H143.972V125.675H145.607V123.917Z" fill="#F0F0F0"/>
<path d="M145.607 126.863H143.972V128.62H145.607V126.863Z" fill="#F0F0F0"/>
<path d="M145.607 129.812H143.972V131.569H145.607V129.812Z" fill="#F0F0F0"/>
<path d="M145.607 132.76H143.972V134.518H145.607V132.76Z" fill="#F0F0F0"/>
<path d="M145.607 135.71H143.972V137.468H145.607V135.71Z" fill="#F0F0F0"/>
<path d="M145.607 138.659H143.972V140.417H145.607V138.659Z" fill="#F0F0F0"/>
<path d="M145.607 141.604H143.972V143.361H145.607V141.604Z" fill="#F0F0F0"/>
<path d="M145.607 144.553H143.972V146.311H145.607V144.553Z" fill="#F0F0F0"/>
<path d="M145.607 147.493H143.972V149.251H145.607V147.493Z" fill="#F0F0F0"/>
<path d="M145.607 150.443H143.972V152.201H145.607V150.443Z" fill="#F0F0F0"/>
<path d="M145.607 153.392H143.972V155.15H145.607V153.392Z" fill="#F0F0F0"/>
<path d="M145.607 156.336H143.972V158.094H145.607V156.336Z" fill="#F0F0F0"/>
<path d="M145.607 159.286H143.972V161.044H145.607V159.286Z" fill="#F0F0F0"/>
<path d="M145.607 162.235H143.972V163.993H145.607V162.235Z" fill="#F0F0F0"/>
<path d="M143.009 120.969H141.374V122.726H143.009V120.969Z" fill="#F0F0F0"/>
<path d="M143.009 123.917H141.374V125.675H143.009V123.917Z" fill="#F0F0F0"/>
<path d="M143.009 126.863H141.374V128.62H143.009V126.863Z" fill="#F0F0F0"/>
<path d="M143.009 129.812H141.374V131.569H143.009V129.812Z" fill="#F0F0F0"/>
<path d="M143.009 132.76H141.374V134.518H143.009V132.76Z" fill="#F0F0F0"/>
<path d="M143.009 135.71H141.374V137.468H143.009V135.71Z" fill="#F0F0F0"/>
<path d="M143.009 138.659H141.374V140.417H143.009V138.659Z" fill="#F0F0F0"/>
<path d="M143.009 141.604H141.374V143.361H143.009V141.604Z" fill="#F0F0F0"/>
<path d="M143.009 144.553H141.374V146.311H143.009V144.553Z" fill="#F0F0F0"/>
<path d="M143.009 147.493H141.374V149.251H143.009V147.493Z" fill="#F0F0F0"/>
<path d="M143.009 150.443H141.374V152.201H143.009V150.443Z" fill="#F0F0F0"/>
<path d="M143.009 153.392H141.374V155.15H143.009V153.392Z" fill="#F0F0F0"/>
<path d="M143.009 156.336H141.374V158.094H143.009V156.336Z" fill="#F0F0F0"/>
<path d="M140.411 120.969H138.776V122.726H140.411V120.969Z" fill="#F0F0F0"/>
<path d="M140.411 123.917H138.776V125.675H140.411V123.917Z" fill="#F0F0F0"/>
<path d="M140.411 126.863H138.776V128.62H140.411V126.863Z" fill="#F0F0F0"/>
<path d="M140.411 129.812H138.776V131.569H140.411V129.812Z" fill="#F0F0F0"/>
<path d="M140.411 132.76H138.776V134.518H140.411V132.76Z" fill="#F0F0F0"/>
<path d="M140.411 135.71H138.776V137.468H140.411V135.71Z" fill="#F0F0F0"/>
<path d="M140.411 138.659H138.776V140.417H140.411V138.659Z" fill="#F0F0F0"/>
<path d="M140.411 141.604H138.776V143.361H140.411V141.604Z" fill="#F0F0F0"/>
<path d="M140.411 144.553H138.776V146.311H140.411V144.553Z" fill="#F0F0F0"/>
<path d="M140.411 147.493H138.776V149.251H140.411V147.493Z" fill="#F0F0F0"/>
<path d="M140.411 150.443H138.776V152.201H140.411V150.443Z" fill="#F0F0F0"/>
<path d="M140.411 153.392H138.776V155.15H140.411V153.392Z" fill="#F0F0F0"/>
<path d="M292.005 120.094H290.37V121.851H292.005V120.094Z" fill="#F0F0F0"/>
<path d="M292.005 123.043H290.37V124.801H292.005V123.043Z" fill="#F0F0F0"/>
<path d="M292.005 125.992H290.37V127.75H292.005V125.992Z" fill="#F0F0F0"/>
<path d="M292.005 128.933H290.37V130.691H292.005V128.933Z" fill="#F0F0F0"/>
<path d="M292.005 131.877H290.37V133.635H292.005V131.877Z" fill="#F0F0F0"/>
<path d="M292.005 134.826H290.37V136.584H292.005V134.826Z" fill="#F0F0F0"/>
<path d="M292.005 137.776H290.37V139.534H292.005V137.776Z" fill="#F0F0F0"/>
<path d="M292.005 140.725H290.37V142.483H292.005V140.725Z" fill="#F0F0F0"/>
<path d="M292.005 143.67H290.37V145.428H292.005V143.67Z" fill="#F0F0F0"/>
<path d="M292.005 146.619H290.37V148.377H292.005V146.619Z" fill="#F0F0F0"/>
<path d="M292.005 149.568H290.37V151.326H292.005V149.568Z" fill="#F0F0F0"/>
<path d="M292.005 152.517H290.37V154.275H292.005V152.517Z" fill="#F0F0F0"/>
<path d="M292.005 155.462H290.37V157.22H292.005V155.462Z" fill="#F0F0F0"/>
<path d="M292.005 158.407H290.37V160.165H292.005V158.407Z" fill="#F0F0F0"/>
<path d="M292.005 161.352H290.37V163.109H292.005V161.352Z" fill="#F0F0F0"/>
<path d="M292.005 164.301H290.37V166.058H292.005V164.301Z" fill="#F0F0F0"/>
<path d="M292.005 167.25H290.37V169.007H292.005V167.25Z" fill="#F0F0F0"/>
<path d="M292.005 173.144H290.37V174.901H292.005V173.144Z" fill="#F0F0F0"/>
<path d="M292.005 176.093H290.37V177.851H292.005V176.093Z" fill="#F0F0F0"/>
<path d="M292.005 179.042H290.37V180.8H292.005V179.042Z" fill="#F0F0F0"/>
<path d="M292.005 181.991H290.37V183.749H292.005V181.991Z" fill="#F0F0F0"/>
<path d="M292.005 184.932H290.37V186.69H292.005V184.932Z" fill="#F0F0F0"/>
<path d="M289.407 120.094H287.772V121.851H289.407V120.094Z" fill="#F0F0F0"/>
<path d="M289.407 123.043H287.772V124.801H289.407V123.043Z" fill="#F0F0F0"/>
<path d="M289.407 125.992H287.772V127.75H289.407V125.992Z" fill="#F0F0F0"/>
<path d="M289.407 128.933H287.772V130.691H289.407V128.933Z" fill="#F0F0F0"/>
<path d="M289.407 131.877H287.772V133.635H289.407V131.877Z" fill="#F0F0F0"/>
<path d="M289.407 134.826H287.772V136.584H289.407V134.826Z" fill="#F0F0F0"/>
<path d="M289.407 137.776H287.772V139.534H289.407V137.776Z" fill="#F0F0F0"/>
<path d="M289.407 140.725H287.772V142.483H289.407V140.725Z" fill="#F0F0F0"/>
<path d="M289.407 143.67H287.772V145.428H289.407V143.67Z" fill="#F0F0F0"/>
<path d="M289.407 146.619H287.772V148.377H289.407V146.619Z" fill="#F0F0F0"/>
<path d="M289.407 149.568H287.772V151.326H289.407V149.568Z" fill="#F0F0F0"/>
<path d="M289.407 152.517H287.772V154.275H289.407V152.517Z" fill="#F0F0F0"/>
<path d="M289.407 155.462H287.772V157.22H289.407V155.462Z" fill="#F0F0F0"/>
<path d="M289.407 158.407H287.772V160.165H289.407V158.407Z" fill="#F0F0F0"/>
<path d="M289.407 161.352H287.772V163.109H289.407V161.352Z" fill="#F0F0F0"/>
<path d="M289.407 164.301H287.772V166.058H289.407V164.301Z" fill="#F0F0F0"/>
<path d="M289.407 181.991H287.772V183.749H289.407V181.991Z" fill="#F0F0F0"/>
<path d="M289.407 184.932H287.772V186.69H289.407V184.932Z" fill="#F0F0F0"/>
<path d="M286.817 120.094H285.182V121.851H286.817V120.094Z" fill="#F0F0F0"/>
<path d="M286.817 123.043H285.182V124.801H286.817V123.043Z" fill="#F0F0F0"/>
<path d="M286.817 125.992H285.182V127.75H286.817V125.992Z" fill="#F0F0F0"/>
<path d="M286.817 128.933H285.182V130.691H286.817V128.933Z" fill="#F0F0F0"/>
<path d="M286.817 131.877H285.182V133.635H286.817V131.877Z" fill="#F0F0F0"/>
<path d="M286.817 134.826H285.182V136.584H286.817V134.826Z" fill="#F0F0F0"/>
<path d="M286.817 137.776H285.182V139.534H286.817V137.776Z" fill="#F0F0F0"/>
<path d="M286.817 140.725H285.182V142.483H286.817V140.725Z" fill="#F0F0F0"/>
<path d="M286.817 143.67H285.182V145.428H286.817V143.67Z" fill="#F0F0F0"/>
<path d="M286.817 146.619H285.182V148.377H286.817V146.619Z" fill="#F0F0F0"/>
<path d="M286.817 149.568H285.182V151.326H286.817V149.568Z" fill="#F0F0F0"/>
<path d="M286.817 152.517H285.182V154.275H286.817V152.517Z" fill="#F0F0F0"/>
<path d="M286.817 155.462H285.182V157.22H286.817V155.462Z" fill="#F0F0F0"/>
<path d="M286.817 158.407H285.182V160.165H286.817V158.407Z" fill="#F0F0F0"/>
<path d="M286.817 161.352H285.182V163.109H286.817V161.352Z" fill="#F0F0F0"/>
<path d="M286.817 164.301H285.182V166.058H286.817V164.301Z" fill="#F0F0F0"/>
<path d="M286.817 170.199H285.182V171.957H286.817V170.199Z" fill="#F0F0F0"/>
<path d="M286.817 173.144H285.182V174.901H286.817V173.144Z" fill="#F0F0F0"/>
<path d="M286.817 176.093H285.182V177.851H286.817V176.093Z" fill="#F0F0F0"/>
<path d="M286.817 179.042H285.182V180.8H286.817V179.042Z" fill="#F0F0F0"/>
<path d="M286.817 184.932H285.182V186.69H286.817V184.932Z" fill="#F0F0F0"/>
<path d="M241.508 140.725H239.873V142.483H241.508V140.725Z" fill="#F0F0F0"/>
<path d="M241.508 143.67H239.873V145.428H241.508V143.67Z" fill="#F0F0F0"/>
<path d="M241.508 146.619H239.873V148.377H241.508V146.619Z" fill="#F0F0F0"/>
<path d="M241.508 149.568H239.873V151.326H241.508V149.568Z" fill="#F0F0F0"/>
<path d="M241.508 152.517H239.873V154.275H241.508V152.517Z" fill="#F0F0F0"/>
<path d="M241.508 155.462H239.873V157.22H241.508V155.462Z" fill="#F0F0F0"/>
<path d="M241.508 158.407H239.873V160.165H241.508V158.407Z" fill="#F0F0F0"/>
<path d="M241.508 161.352H239.873V163.109H241.508V161.352Z" fill="#F0F0F0"/>
<path d="M241.508 164.301H239.873V166.058H241.508V164.301Z" fill="#F0F0F0"/>
<path d="M241.508 167.25H239.873V169.007H241.508V167.25Z" fill="#F0F0F0"/>
<path d="M241.508 170.199H239.873V171.957H241.508V170.199Z" fill="#F0F0F0"/>
<path d="M241.508 173.144H239.873V174.901H241.508V173.144Z" fill="#F0F0F0"/>
<path d="M241.508 176.093H239.873V177.851H241.508V176.093Z" fill="#F0F0F0"/>
<path d="M241.508 181.991H239.873V183.749H241.508V181.991Z" fill="#F0F0F0"/>
<path d="M241.508 184.932H239.873V186.69H241.508V184.932Z" fill="#F0F0F0"/>
<path d="M241.508 187.876H239.873V189.634H241.508V187.876Z" fill="#F0F0F0"/>
<path d="M241.508 190.826H239.873V192.584H241.508V190.826Z" fill="#F0F0F0"/>
<path d="M241.508 196.724H239.873V198.482H241.508V196.724Z" fill="#F0F0F0"/>
<path d="M241.508 199.673H239.873V201.431H241.508V199.673Z" fill="#F0F0F0"/>
<path d="M241.508 202.618H239.873V204.376H241.508V202.618Z" fill="#F0F0F0"/>
<path d="M238.91 140.725H237.275V142.483H238.91V140.725Z" fill="#F0F0F0"/>
<path d="M238.91 143.67H237.275V145.428H238.91V143.67Z" fill="#F0F0F0"/>
<path d="M238.91 146.619H237.275V148.377H238.91V146.619Z" fill="#F0F0F0"/>
<path d="M238.91 149.568H237.275V151.326H238.91V149.568Z" fill="#F0F0F0"/>
<path d="M238.91 152.517H237.275V154.275H238.91V152.517Z" fill="#F0F0F0"/>
<path d="M238.91 155.462H237.275V157.22H238.91V155.462Z" fill="#F0F0F0"/>
<path d="M238.91 158.407H237.275V160.165H238.91V158.407Z" fill="#F0F0F0"/>
<path d="M238.91 161.352H237.275V163.109H238.91V161.352Z" fill="#F0F0F0"/>
<path d="M238.91 164.301H237.275V166.058H238.91V164.301Z" fill="#F0F0F0"/>
<path d="M238.91 167.25H237.275V169.007H238.91V167.25Z" fill="#F0F0F0"/>
<path d="M238.91 170.199H237.275V171.957H238.91V170.199Z" fill="#F0F0F0"/>
<path d="M238.91 173.144H237.275V174.901H238.91V173.144Z" fill="#F0F0F0"/>
<path d="M238.91 176.093H237.275V177.851H238.91V176.093Z" fill="#F0F0F0"/>
<path d="M238.91 184.932H237.275V186.69H238.91V184.932Z" fill="#F0F0F0"/>
<path d="M238.91 187.876H237.275V189.634H238.91V187.876Z" fill="#F0F0F0"/>
<path d="M238.91 193.775H237.275V195.533H238.91V193.775Z" fill="#F0F0F0"/>
<path d="M238.91 196.724H237.275V198.482H238.91V196.724Z" fill="#F0F0F0"/>
<path d="M238.91 199.673H237.275V201.431H238.91V199.673Z" fill="#F0F0F0"/>
<path d="M238.91 202.618H237.275V204.376H238.91V202.618Z" fill="#F0F0F0"/>
<path d="M236.313 140.725H234.677V142.483H236.313V140.725Z" fill="#F0F0F0"/>
<path d="M236.313 143.67H234.677V145.428H236.313V143.67Z" fill="#F0F0F0"/>
<path d="M236.313 146.619H234.677V148.377H236.313V146.619Z" fill="#F0F0F0"/>
<path d="M236.313 149.568H234.677V151.326H236.313V149.568Z" fill="#F0F0F0"/>
<path d="M236.313 152.517H234.677V154.275H236.313V152.517Z" fill="#F0F0F0"/>
<path d="M236.313 155.462H234.677V157.22H236.313V155.462Z" fill="#F0F0F0"/>
<path d="M236.313 158.407H234.677V160.165H236.313V158.407Z" fill="#F0F0F0"/>
<path d="M236.313 161.352H234.677V163.109H236.313V161.352Z" fill="#F0F0F0"/>
<path d="M236.313 164.301H234.677V166.058H236.313V164.301Z" fill="#F0F0F0"/>
<path d="M236.313 167.25H234.677V169.007H236.313V167.25Z" fill="#F0F0F0"/>
<path d="M236.313 170.199H234.677V171.957H236.313V170.199Z" fill="#F0F0F0"/>
<path d="M236.313 173.144H234.677V174.901H236.313V173.144Z" fill="#F0F0F0"/>
<path d="M236.313 176.093H234.677V177.851H236.313V176.093Z" fill="#F0F0F0"/>
<path d="M236.313 179.042H234.677V180.8H236.313V179.042Z" fill="#F0F0F0"/>
<path d="M236.313 184.932H234.677V186.69H236.313V184.932Z" fill="#F0F0F0"/>
<path d="M236.313 190.826H234.677V192.584H236.313V190.826Z" fill="#F0F0F0"/>
<path d="M236.313 193.775H234.677V195.533H236.313V193.775Z" fill="#F0F0F0"/>
<path d="M236.313 196.724H234.677V198.482H236.313V196.724Z" fill="#F0F0F0"/>
<path d="M236.313 199.673H234.677V201.431H236.313V199.673Z" fill="#F0F0F0"/>
<path d="M236.313 202.618H234.677V204.376H236.313V202.618Z" fill="#F0F0F0"/>
<path d="M252.087 157.532H250.452V159.29H252.087V157.532Z" fill="#F0F0F0"/>
<path d="M252.087 160.477H250.452V162.235H252.087V160.477Z" fill="#F0F0F0"/>
<path d="M252.087 163.426H250.452V165.184H252.087V163.426Z" fill="#F0F0F0"/>
<path d="M252.087 166.367H250.452V168.125H252.087V166.367Z" fill="#F0F0F0"/>
<path d="M252.087 169.316H250.452V171.074H252.087V169.316Z" fill="#F0F0F0"/>
<path d="M252.087 172.265H250.452V174.023H252.087V172.265Z" fill="#F0F0F0"/>
<path d="M252.087 181.108H250.452V182.866H252.087V181.108Z" fill="#F0F0F0"/>
<path d="M252.087 184.057H250.452V185.815H252.087V184.057Z" fill="#F0F0F0"/>
<path d="M252.087 187.006H250.452V188.764H252.087V187.006Z" fill="#F0F0F0"/>
<path d="M252.087 189.951H250.452V191.709H252.087V189.951Z" fill="#F0F0F0"/>
<path d="M252.087 192.9H250.452V194.658H252.087V192.9Z" fill="#F0F0F0"/>
<path d="M252.087 195.841H250.452V197.598H252.087V195.841Z" fill="#F0F0F0"/>
<path d="M252.087 198.79H250.452V200.547H252.087V198.79Z" fill="#F0F0F0"/>
<path d="M249.489 157.532H247.854V159.29H249.489V157.532Z" fill="#F0F0F0"/>
<path d="M249.489 160.477H247.854V162.235H249.489V160.477Z" fill="#F0F0F0"/>
<path d="M249.489 163.426H247.854V165.184H249.489V163.426Z" fill="#F0F0F0"/>
<path d="M249.489 166.367H247.854V168.125H249.489V166.367Z" fill="#F0F0F0"/>
<path d="M249.489 169.316H247.854V171.074H249.489V169.316Z" fill="#F0F0F0"/>
<path d="M249.489 172.265H247.854V174.023H249.489V172.265Z" fill="#F0F0F0"/>
<path d="M249.489 181.108H247.854V182.866H249.489V181.108Z" fill="#F0F0F0"/>
<path d="M249.489 184.057H247.854V185.815H249.489V184.057Z" fill="#F0F0F0"/>
<path d="M249.489 187.006H247.854V188.764H249.489V187.006Z" fill="#F0F0F0"/>
<path d="M249.489 189.951H247.854V191.709H249.489V189.951Z" fill="#F0F0F0"/>
<path d="M249.489 192.9H247.854V194.658H249.489V192.9Z" fill="#F0F0F0"/>
<path d="M249.489 195.841H247.854V197.598H249.489V195.841Z" fill="#F0F0F0"/>
<path d="M249.489 201.739H247.854V203.497H249.489V201.739Z" fill="#F0F0F0"/>
<path d="M163.207 144.553H161.572V146.311H163.207V144.553Z" fill="#F0F0F0"/>
<path d="M163.207 147.493H161.572V149.251H163.207V147.493Z" fill="#F0F0F0"/>
<path d="M163.207 150.443H161.572V152.201H163.207V150.443Z" fill="#F0F0F0"/>
<path d="M163.207 153.392H161.572V155.15H163.207V153.392Z" fill="#F0F0F0"/>
<path d="M163.207 156.336H161.572V158.094H163.207V156.336Z" fill="#F0F0F0"/>
<path d="M163.207 159.286H161.572V161.044H163.207V159.286Z" fill="#F0F0F0"/>
<path d="M163.207 162.235H161.572V163.993H163.207V162.235Z" fill="#F0F0F0"/>
<path d="M163.207 165.184H161.572V166.942H163.207V165.184Z" fill="#F0F0F0"/>
<path d="M163.207 168.129H161.572V169.887H163.207V168.129Z" fill="#F0F0F0"/>
<path d="M163.207 171.078H161.572V172.836H163.207V171.078Z" fill="#F0F0F0"/>
<path d="M163.207 174.027H161.572V175.785H163.207V174.027Z" fill="#F0F0F0"/>
<path d="M163.207 179.917H161.572V181.674H163.207V179.917Z" fill="#F0F0F0"/>
<path d="M163.207 182.866H161.572V184.624H163.207V182.866Z" fill="#F0F0F0"/>
<path d="M163.207 185.811H161.572V187.568H163.207V185.811Z" fill="#F0F0F0"/>
<path d="M163.207 188.76H161.572V190.517H163.207V188.76Z" fill="#F0F0F0"/>
<path d="M163.207 191.709H161.572V193.467H163.207V191.709Z" fill="#F0F0F0"/>
<path d="M163.207 194.658H161.572V196.416H163.207V194.658Z" fill="#F0F0F0"/>
<path d="M163.207 197.603H161.572V199.36H163.207V197.603Z" fill="#F0F0F0"/>
<path d="M163.207 200.552H161.572V202.31H163.207V200.552Z" fill="#F0F0F0"/>
<path d="M160.617 144.553H158.982V146.311H160.617V144.553Z" fill="#F0F0F0"/>
<path d="M160.617 147.493H158.982V149.251H160.617V147.493Z" fill="#F0F0F0"/>
<path d="M160.617 150.443H158.982V152.201H160.617V150.443Z" fill="#F0F0F0"/>
<path d="M160.617 153.392H158.982V155.15H160.617V153.392Z" fill="#F0F0F0"/>
<path d="M160.617 156.336H158.982V158.094H160.617V156.336Z" fill="#F0F0F0"/>
<path d="M160.617 159.286H158.982V161.044H160.617V159.286Z" fill="#F0F0F0"/>
<path d="M160.617 162.235H158.982V163.993H160.617V162.235Z" fill="#F0F0F0"/>
<path d="M160.617 165.184H158.982V166.942H160.617V165.184Z" fill="#F0F0F0"/>
<path d="M160.617 168.129H158.982V169.887H160.617V168.129Z" fill="#F0F0F0"/>
<path d="M160.617 171.078H158.982V172.836H160.617V171.078Z" fill="#F0F0F0"/>
<path d="M160.617 174.027H158.982V175.785H160.617V174.027Z" fill="#F0F0F0"/>
<path d="M160.617 176.968H158.982V178.725H160.617V176.968Z" fill="#F0F0F0"/>
<path d="M160.617 179.917H158.982V181.674H160.617V179.917Z" fill="#F0F0F0"/>
<path d="M160.617 182.866H158.982V184.624H160.617V182.866Z" fill="#F0F0F0"/>
<path d="M160.617 185.811H158.982V187.568H160.617V185.811Z" fill="#F0F0F0"/>
<path d="M160.617 188.76H158.982V190.517H160.617V188.76Z" fill="#F0F0F0"/>
<path d="M160.617 191.709H158.982V193.467H160.617V191.709Z" fill="#F0F0F0"/>
<path d="M160.617 194.658H158.982V196.416H160.617V194.658Z" fill="#F0F0F0"/>
<path d="M160.617 197.603H158.982V199.36H160.617V197.603Z" fill="#F0F0F0"/>
<path d="M160.617 200.552H158.982V202.31H160.617V200.552Z" fill="#F0F0F0"/>
<path d="M176.005 156.029H174.37V157.786H176.005V156.029Z" fill="#F0F0F0"/>
<path d="M176.005 158.978H174.37V160.735H176.005V158.978Z" fill="#F0F0F0"/>
<path d="M176.005 161.922H174.37V163.68H176.005V161.922Z" fill="#F0F0F0"/>
<path d="M176.005 164.872H174.37V166.63H176.005V164.872Z" fill="#F0F0F0"/>
<path d="M176.005 167.821H174.37V169.578H176.005V167.821Z" fill="#F0F0F0"/>
<path d="M176.005 170.77H174.37V172.527H176.005V170.77Z" fill="#F0F0F0"/>
<path d="M176.005 173.715H174.37V175.473H176.005V173.715Z" fill="#F0F0F0"/>
<path d="M176.005 176.659H174.37V178.417H176.005V176.659Z" fill="#F0F0F0"/>
<path d="M176.005 179.604H174.37V181.362H176.005V179.604Z" fill="#F0F0F0"/>
<path d="M176.005 182.553H174.37V184.311H176.005V182.553Z" fill="#F0F0F0"/>
<path d="M173.408 156.029H171.772V157.786H173.408V156.029Z" fill="#F0F0F0"/>
<path d="M173.408 158.978H171.772V160.735H173.408V158.978Z" fill="#F0F0F0"/>
<path d="M173.408 161.922H171.772V163.68H173.408V161.922Z" fill="#F0F0F0"/>
<path d="M173.408 164.872H171.772V166.63H173.408V164.872Z" fill="#F0F0F0"/>
<path d="M173.408 167.821H171.772V169.578H173.408V167.821Z" fill="#F0F0F0"/>
<path d="M173.408 170.77H171.772V172.527H173.408V170.77Z" fill="#F0F0F0"/>
<path d="M173.408 173.715H171.772V175.473H173.408V173.715Z" fill="#F0F0F0"/>
<path d="M173.408 176.659H171.772V178.417H173.408V176.659Z" fill="#F0F0F0"/>
<path d="M173.408 179.604H171.772V181.362H173.408V179.604Z" fill="#F0F0F0"/>
<path d="M188.857 44.1782H186.114V208.565H188.857V44.1782Z" fill="#E0E0E0"/>
<path d="M240.488 44.1782H237.745V208.565H240.488V44.1782Z" fill="#E0E0E0"/>
<path d="M292.116 44.1782H289.373V208.565H292.116V44.1782Z" fill="#E0E0E0"/>
<path d="M96.967 192.542H113.88C114.647 192.542 115.382 192.87 115.924 193.453C116.467 194.036 116.771 194.827 116.771 195.652V230.794H94.0827V195.68C94.0786 195.272 94.1496 194.867 94.2915 194.488C94.4334 194.109 94.6435 193.764 94.9096 193.472C95.1758 193.181 95.4929 192.949 95.8426 192.789C96.1924 192.629 96.568 192.546 96.9479 192.542H96.967Z" fill="#F0F0F0"/>
<path d="M116.775 197.746H94.0828V200.49H116.775V197.746Z" fill="#E6E6E6"/>
<path d="M106.988 226.202H112.642C113.054 226.202 113.45 226.378 113.741 226.691C114.033 227.005 114.197 227.43 114.197 227.874V230.835H105.41V227.845C105.41 227.401 105.574 226.976 105.865 226.663C106.157 226.349 106.552 226.173 106.965 226.173L106.988 226.202Z" fill="#E0E0E0"/>
<path d="M114.223 230.823H107.935C107.668 230.823 107.411 230.708 107.222 230.505C107.033 230.302 106.927 230.026 106.927 229.738C106.928 229.451 107.034 229.177 107.223 228.974C107.412 228.772 107.668 228.658 107.935 228.658H114.223C114.49 228.658 114.746 228.772 114.935 228.974C115.124 229.177 115.231 229.451 115.232 229.738C115.232 230.026 115.126 230.302 114.936 230.505C114.747 230.708 114.491 230.823 114.223 230.823Z" fill="#E6E6E6"/>
<path d="M214.978 36.4629C223.282 34.3557 228.425 25.4097 226.465 16.4816C224.505 7.5535 216.185 2.02408 207.88 4.1313C199.576 6.23853 194.433 15.1845 196.393 24.1126C198.353 33.0407 206.674 38.5701 214.978 36.4629Z" fill="#E0E0E0"/>
<path d="M211.427 34.4029C218.683 34.4029 224.565 28.0789 224.565 20.2779C224.565 12.4768 218.683 6.15283 211.427 6.15283C204.171 6.15283 198.289 12.4768 198.289 20.2779C198.289 28.0789 204.171 34.4029 211.427 34.4029Z" fill="#F0F0F0"/>
<path d="M212.05 10.5969V20.4709L218.132 16.7702" fill="#F0F0F0"/>
<path d="M212.05 21.1568C211.933 21.1578 211.817 21.1237 211.717 21.0582C211.619 20.9955 211.538 20.9065 211.482 20.7999C211.426 20.6934 211.396 20.5729 211.396 20.4503V10.5682C211.409 10.3906 211.484 10.2248 211.605 10.1038C211.727 9.98275 211.886 9.91553 212.052 9.91553C212.217 9.91553 212.377 9.98275 212.498 10.1038C212.62 10.2248 212.694 10.3906 212.707 10.5682V19.2592L217.811 16.1541C217.963 16.0615 218.143 16.0376 218.311 16.0877C218.479 16.1377 218.622 16.2577 218.709 16.4211C218.795 16.5845 218.817 16.778 218.77 16.959C218.724 17.14 218.612 17.2937 218.46 17.3863L212.371 21.0829C212.271 21.1341 212.161 21.1594 212.05 21.1568Z" fill="#E0E0E0"/>
<path d="M63.5699 182.414C62.3894 180.298 60.4487 182.139 60.4487 182.139C60.7237 178.13 57.2969 175.394 57.2969 175.394C57.2969 175.394 61.2815 175.394 61.8316 171.312C62.3818 167.229 60.4487 169.127 58.6226 169.098C56.7965 169.069 54.8901 174.795 57.3122 178.019C59.7343 181.243 59.0695 186.743 53.5148 192.033C52.1851 193.369 51.1881 195.043 50.6152 196.9C51.0316 192.041 51.2685 185.19 49.9581 180.623C47.7003 172.864 52.0058 170.765 53.2359 166.884C54.4661 163.003 49.9581 159.717 49.9581 159.717C49.9581 159.717 54.2292 157.601 52.1433 155.24C50.0574 152.878 45.752 153.186 45.752 156.295C45.752 159.405 48.6707 160.612 48.6707 160.612C48.6707 160.612 52.0058 164.342 52.0058 166.256C52.0058 168.17 48.6707 172.396 48.6707 172.396C48.6707 172.396 50.1988 168.823 47.1426 168.675C44.0863 168.527 43.116 172.848 44.369 174.786C45.6221 176.725 47.7003 175.09 47.7003 175.09C47.8391 177.348 48.1638 179.589 48.6707 181.785C48.9878 182.907 48.8426 187.285 48.579 191.844C47.9993 190.199 47.072 188.721 45.8704 187.527C40.3119 182.237 39.67 176.733 42.0768 173.513C44.4836 170.293 42.5582 164.563 40.7626 164.592C38.9671 164.621 36.992 162.719 37.5498 166.802C38.1075 170.885 42.0883 170.909 42.0883 170.909C42.0883 170.909 38.65 173.645 38.9327 177.649C38.9327 177.649 36.9653 175.83 35.8115 177.924C33.7027 181.658 38.5927 183.97 39.4103 182.159C39.4103 182.159 49.7709 190.041 47.2839 201.39L47.8608 202.314C47.7882 203.234 47.7423 203.78 47.7423 203.78L48.5484 203.406L49.4729 204.844C49.4433 206.491 49.5224 208.138 49.7098 209.773L52.1815 205.838C49.6831 194.489 60.0552 186.603 60.0552 186.603C60.8116 188.464 65.6901 186.143 63.5699 182.414Z" fill="#E0E0E0"/>
<path opacity="0.2" d="M63.5699 182.414C62.3894 180.298 60.4487 182.139 60.4487 182.139C60.7237 178.13 57.2969 175.394 57.2969 175.394C57.2969 175.394 61.2815 175.394 61.8316 171.312C62.3818 167.229 60.4487 169.127 58.6226 169.098C56.7965 169.069 54.8901 174.795 57.3122 178.019C59.7343 181.243 59.0695 186.743 53.5148 192.033C52.1851 193.369 51.1881 195.043 50.6152 196.9C51.0316 192.041 51.2685 185.19 49.9581 180.623C47.7003 172.864 52.0058 170.765 53.2359 166.884C54.4661 163.003 49.9581 159.717 49.9581 159.717C49.9581 159.717 54.2292 157.601 52.1433 155.24C50.0574 152.878 45.752 153.186 45.752 156.295C45.752 159.405 48.6707 160.612 48.6707 160.612C48.6707 160.612 52.0058 164.342 52.0058 166.256C52.0058 168.17 48.6707 172.396 48.6707 172.396C48.6707 172.396 50.1988 168.823 47.1426 168.675C44.0863 168.527 43.116 172.848 44.369 174.786C45.6221 176.725 47.7003 175.09 47.7003 175.09C47.8391 177.348 48.1638 179.589 48.6707 181.785C48.9878 182.907 48.8426 187.285 48.579 191.844C47.9993 190.199 47.072 188.721 45.8704 187.527C40.3119 182.237 39.67 176.733 42.0768 173.513C44.4836 170.293 42.5582 164.563 40.7626 164.592C38.9671 164.621 36.992 162.719 37.5498 166.802C38.1075 170.885 42.0883 170.909 42.0883 170.909C42.0883 170.909 38.65 173.645 38.9327 177.649C38.9327 177.649 36.9653 175.83 35.8115 177.924C33.7027 181.658 38.5927 183.97 39.4103 182.159C39.4103 182.159 49.7709 190.041 47.2839 201.39L47.8608 202.314C47.7882 203.234 47.7423 203.78 47.7423 203.78L48.5484 203.406L49.4729 204.844C49.4433 206.491 49.5224 208.138 49.7098 209.773L52.1815 205.838C49.6831 194.489 60.0552 186.603 60.0552 186.603C60.8116 188.464 65.6901 186.143 63.5699 182.414Z" fill="#E0E0E0"/>
<path d="M61.5564 230.823H37.8285L35.2727 202.893H64.1237L61.5564 230.823Z" fill="#E6E6E6"/>
<path d="M65.3845 199.812H34.0007V205.978H65.3845V199.812Z" fill="#F0F0F0"/>
<path d="M179.664 58.76L163.325 68.2227C162.884 68.4776 162.72 69.068 162.957 69.5413L168.171 79.9483C168.408 80.4216 168.957 80.5986 169.398 80.3437L185.737 70.881C186.177 70.626 186.342 70.0357 186.105 69.5624L180.89 59.1554C180.653 58.682 180.104 58.505 179.664 58.76Z" fill="#2CB67D"/>
<path opacity="0.7" d="M179.664 58.76L163.325 68.2227C162.884 68.4776 162.72 69.068 162.957 69.5413L168.171 79.9483C168.408 80.4216 168.957 80.5986 169.398 80.3437L185.737 70.881C186.177 70.626 186.342 70.0357 186.105 69.5624L180.89 59.1554C180.653 58.682 180.104 58.505 179.664 58.76Z" fill="white"/>
<path opacity="0.2" d="M176.708 70.6786C176.507 71.1446 176.171 71.5283 175.75 71.7725C175.33 72.0167 174.847 72.1084 174.374 72.034L163.551 70.3172L174.183 71.4467C174.594 71.4919 175.008 71.4047 175.372 71.1963C175.737 70.9878 176.036 70.6675 176.231 70.2761L181.315 60.0078L176.708 70.6786Z" fill="black"/>
<path d="M188.937 59.0344C187.21 54.5615 171.746 43.5662 172.854 42.5723C173.961 41.5783 176.743 43.6936 176.743 43.6936C176.743 43.6936 175.188 41.7631 176.743 41.6399C178.298 41.5167 181.675 43.7552 181.675 43.7552C181.675 43.7552 180.036 41.7385 181.675 41.6399C183.314 41.5413 186.431 44.7984 186.431 44.7984C186.431 44.7984 184.265 41.4469 187.554 43.8661C190.843 46.2853 193.544 54.1919 193.72 58.1143C193.896 62.0368 190.664 63.5072 188.937 59.0344Z" fill="#2CB67D"/>
<path opacity="0.4" d="M188.937 59.0344C187.21 54.5615 171.746 43.5662 172.854 42.5723C173.961 41.5783 176.743 43.6936 176.743 43.6936C176.743 43.6936 175.188 41.7631 176.743 41.6399C178.298 41.5167 181.675 43.7552 181.675 43.7552C181.675 43.7552 180.036 41.7385 181.675 41.6399C183.314 41.5413 186.431 44.7984 186.431 44.7984C186.431 44.7984 184.265 41.4469 187.554 43.8661C190.843 46.2853 193.544 54.1919 193.72 58.1143C193.896 62.0368 190.664 63.5072 188.937 59.0344Z" fill="white"/>
<path d="M182.018 59.5271L180.765 61.0386C180.745 61.0629 180.719 61.0815 180.691 61.0929C180.662 61.1044 180.631 61.1083 180.601 61.1043C180.553 61.0971 180.509 61.0699 180.479 61.0285C180.449 60.9871 180.435 60.9347 180.441 60.8825L180.624 59.0917L178.454 59.2725C178.422 59.2764 178.39 59.2703 178.362 59.255C178.333 59.2397 178.31 59.2158 178.294 59.1862C178.282 59.1658 178.274 59.143 178.271 59.1193C178.267 59.0956 178.268 59.0713 178.273 59.048C178.279 59.0247 178.288 59.0027 178.302 58.9834C178.315 58.9641 178.332 58.9479 178.351 58.9357L180.418 57.5269L182.018 59.5271Z" fill="#2CB67D"/>
<path opacity="0.3" d="M182.018 59.5271L180.765 61.0386C180.745 61.0629 180.719 61.0815 180.691 61.0929C180.662 61.1044 180.631 61.1083 180.601 61.1043C180.553 61.0971 180.509 61.0699 180.479 61.0285C180.449 60.9871 180.435 60.9347 180.441 60.8825L180.624 59.0917L178.454 59.2725C178.422 59.2764 178.39 59.2703 178.362 59.255C178.333 59.2397 178.31 59.2158 178.294 59.1862C178.282 59.1658 178.274 59.143 178.271 59.1193C178.267 59.0956 178.268 59.0713 178.273 59.048C178.279 59.0247 178.288 59.0027 178.302 58.9834C178.315 58.9641 178.332 58.9479 178.351 58.9357L180.418 57.5269L182.018 59.5271Z" fill="white"/>
<path d="M203.214 55.5636C204.715 61.207 201.552 67.6309 195.603 67.5528C189.655 67.4748 187.035 61.3426 183.761 60.5006C180.487 59.6586 179.608 57.8637 180.387 56.1345C181.167 54.4053 183.268 54.4095 187.566 55.9045C191.187 57.1572 195.756 57.2558 197.628 56.1345C201.021 54.1055 202.247 47.9445 202.247 47.9445C206.568 46.5768 209.429 48.6921 209.429 48.6921C206.787 50.2944 204.63 52.6797 203.214 55.5636Z" fill="#2CB67D"/>
<path opacity="0.5" d="M203.214 55.5636C204.715 61.207 201.552 67.6309 195.603 67.5528C189.655 67.4748 187.035 61.3426 183.761 60.5006C180.487 59.6586 179.608 57.8637 180.387 56.1345C181.167 54.4053 183.268 54.4095 187.566 55.9045C191.187 57.1572 195.756 57.2558 197.628 56.1345C201.021 54.1055 202.247 47.9445 202.247 47.9445C206.568 46.5768 209.429 48.6921 209.429 48.6921C206.787 50.2944 204.63 52.6797 203.214 55.5636Z" fill="white"/>
<path d="M182.313 56.9807C182.385 56.9896 182.453 57.027 182.501 57.0857C182.55 57.1444 182.577 57.2203 182.577 57.299C182.577 57.3777 182.55 57.4537 182.501 57.5124C182.453 57.5711 182.385 57.6085 182.313 57.6173C182.24 57.6085 182.173 57.5711 182.124 57.5124C182.075 57.4537 182.048 57.3777 182.048 57.299C182.048 57.2203 182.075 57.1444 182.124 57.0857C182.173 57.027 182.24 56.9896 182.313 56.9807Z" fill="#2F2E41"/>
<path d="M197.663 57.3216C202.144 56.9109 216.634 44.4904 217.192 45.9526C217.75 47.4148 215.003 49.5835 215.003 49.5835C215.003 49.5835 217.207 48.5977 216.814 50.2201C216.42 51.8425 213.402 54.5985 213.402 54.5985C213.402 54.5985 215.717 53.5552 215.29 55.2598C214.862 56.9643 211.034 59.1494 211.034 59.1494C211.034 59.1494 214.655 57.9501 211.507 60.5582C208.359 63.1663 200.524 63.4908 196.99 62.464C193.456 61.4372 193.174 57.7077 197.663 57.3216Z" fill="#2CB67D"/>
<path opacity="0.4" d="M197.663 57.3216C202.144 56.9109 216.634 44.4904 217.192 45.9526C217.75 47.4148 215.003 49.5835 215.003 49.5835C215.003 49.5835 217.207 48.5977 216.814 50.2201C216.42 51.8425 213.402 54.5985 213.402 54.5985C213.402 54.5985 215.717 53.5552 215.29 55.2598C214.862 56.9643 211.034 59.1494 211.034 59.1494C211.034 59.1494 214.655 57.9501 211.507 60.5582C208.359 63.1663 200.524 63.4908 196.99 62.464C193.456 61.4372 193.174 57.7077 197.663 57.3216Z" fill="white"/>
<path d="M220.076 45.3529C220.019 45.3526 219.964 45.3307 219.92 45.2911C219.876 45.2514 219.847 45.1965 219.837 45.1359C219.827 45.0753 219.837 45.0128 219.865 44.9594C219.894 44.906 219.939 44.865 219.992 44.8435C220.607 44.5701 221.236 44.3342 221.876 44.1371C221.907 44.124 221.941 44.118 221.975 44.1196C222.009 44.1212 222.043 44.1303 222.073 44.1464C222.104 44.1624 222.131 44.1851 222.153 44.2129C222.175 44.2407 222.192 44.2731 222.202 44.3081C222.212 44.3431 222.215 44.38 222.211 44.4163C222.207 44.4527 222.197 44.4879 222.18 44.5196C222.163 44.5513 222.14 44.5789 222.113 44.6008C222.085 44.6226 222.054 44.6381 222.021 44.6464C221.392 44.8518 220.77 45.0708 220.156 45.3036C220.13 45.3077 220.103 45.3077 220.076 45.3036V45.3529Z" fill="#2CB67D"/>
<path d="M255.75 102.132C255.688 102.118 255.633 102.077 255.598 102.02C255.563 101.962 255.551 101.892 255.563 101.824C255.575 101.755 255.612 101.694 255.666 101.654C255.719 101.614 255.785 101.599 255.85 101.611C257.134 101.865 258.436 102.002 259.742 102.022C259.803 102.03 259.858 102.061 259.898 102.11C259.938 102.159 259.96 102.221 259.96 102.286C259.96 102.352 259.938 102.414 259.898 102.463C259.858 102.512 259.803 102.543 259.742 102.551C258.403 102.532 257.068 102.392 255.75 102.132ZM263.624 102.338C263.572 102.33 263.524 102.304 263.487 102.264C263.449 102.224 263.425 102.172 263.418 102.116C263.412 102.081 263.413 102.046 263.421 102.011C263.428 101.977 263.442 101.944 263.461 101.916C263.48 101.887 263.504 101.863 263.532 101.844C263.56 101.826 263.591 101.813 263.624 101.808C264.925 101.648 266.216 101.413 267.494 101.106C267.526 101.097 267.559 101.095 267.592 101.1C267.624 101.105 267.656 101.117 267.684 101.136C267.712 101.155 267.736 101.179 267.755 101.208C267.774 101.237 267.788 101.27 267.795 101.304C267.802 101.339 267.802 101.375 267.796 101.41C267.79 101.445 267.777 101.478 267.758 101.507C267.74 101.536 267.716 101.562 267.688 101.581C267.661 101.6 267.63 101.613 267.597 101.619C266.3 101.939 264.986 102.175 263.662 102.325L263.624 102.338ZM252.018 100.929C251.976 100.927 251.936 100.914 251.899 100.892C250.664 100.316 249.517 99.5434 248.496 98.6002C248.445 98.5533 248.414 98.4868 248.409 98.4151C248.404 98.3435 248.425 98.2726 248.469 98.2182C248.512 98.1637 248.574 98.1301 248.641 98.1247C248.708 98.1193 248.773 98.1426 248.824 98.1894C249.806 99.0999 250.912 99.845 252.102 100.399C252.16 100.429 252.205 100.483 252.226 100.548C252.248 100.614 252.244 100.686 252.216 100.748C252.198 100.795 252.167 100.834 252.128 100.861C252.088 100.888 252.042 100.902 251.995 100.9L252.018 100.929ZM271.119 100.272C271.1 100.205 271.104 100.133 271.133 100.07C271.161 100.008 271.211 99.9592 271.272 99.935C272.514 99.4914 273.744 98.9739 274.94 98.4112C274.994 98.3907 275.053 98.3914 275.107 98.4132C275.161 98.435 275.206 98.4765 275.234 98.5303C275.25 98.5608 275.261 98.5944 275.265 98.6293C275.269 98.6642 275.267 98.6996 275.259 98.7336C275.25 98.7676 275.235 98.7994 275.215 98.8273C275.195 98.8551 275.171 98.8784 275.142 98.8959C273.927 99.4668 272.674 99.9884 271.429 100.436H271.352C271.303 100.436 271.254 100.421 271.213 100.392C271.171 100.363 271.139 100.321 271.119 100.272ZM278.611 97.0271C278.562 97.0373 278.51 97.0315 278.464 97.0103C278.418 96.989 278.379 96.9534 278.351 96.9079C278.336 96.8781 278.326 96.8452 278.322 96.8112C278.319 96.7772 278.322 96.7428 278.33 96.7099C278.339 96.6771 278.354 96.6464 278.374 96.6198C278.394 96.5932 278.419 96.571 278.447 96.5547C279.593 95.8565 280.739 95.1007 281.786 94.3162C281.839 94.2765 281.905 94.2612 281.968 94.2735C282.032 94.2858 282.089 94.3248 282.126 94.382C282.145 94.4098 282.158 94.4415 282.166 94.4752C282.173 94.5088 282.174 94.5437 282.169 94.5777C282.163 94.6118 282.152 94.6444 282.135 94.6735C282.117 94.7027 282.095 94.7278 282.068 94.7475C281.002 95.5443 279.864 96.3042 278.687 97.0106C278.649 97.0228 278.608 97.0228 278.569 97.0106L278.611 97.0271ZM246.18 95.4129C246.131 95.4249 246.08 95.4207 246.033 95.401C245.986 95.3812 245.945 95.3467 245.917 95.302C245.707 94.8913 245.512 94.4805 245.332 94.0698C244.959 93.1757 244.663 92.2462 244.45 91.2933C244.441 91.2595 244.439 91.2243 244.443 91.1896C244.447 91.155 244.458 91.1215 244.474 91.0913C244.491 91.0611 244.512 91.0347 244.538 91.0137C244.564 90.9926 244.594 90.9774 244.626 90.9688C244.69 90.9526 244.757 90.9642 244.814 91.0011C244.87 91.0379 244.911 91.0971 244.927 91.1659C245.131 92.0886 245.416 92.9882 245.779 93.8521C245.951 94.2628 246.142 94.6736 246.345 95.035C246.36 95.0647 246.37 95.0973 246.374 95.1312C246.378 95.165 246.376 95.1993 246.367 95.2321C246.359 95.2649 246.344 95.2956 246.325 95.3224C246.305 95.3492 246.281 95.3716 246.253 95.3882C246.214 95.4005 246.173 95.4005 246.135 95.3882L246.18 95.4129ZM285.083 92.1558C285.044 92.1485 285.007 92.1313 284.976 92.1055C284.945 92.0798 284.92 92.0463 284.903 92.0079C284.859 91.9571 284.835 91.8903 284.835 91.8211C284.835 91.7518 284.859 91.685 284.903 91.6342C285.883 90.7042 286.802 89.7024 287.654 88.6358C287.676 88.6114 287.702 88.5919 287.731 88.5786C287.761 88.5653 287.792 88.5585 287.824 88.5585C287.855 88.5585 287.887 88.5653 287.916 88.5786C287.945 88.5919 287.972 88.6114 287.994 88.6358C288.039 88.6857 288.065 88.7528 288.065 88.8227C288.065 88.8926 288.039 88.9597 287.994 89.0096C287.127 90.0976 286.191 91.12 285.193 92.0695C285.149 92.109 285.094 92.132 285.037 92.1353L285.083 92.1558ZM244.244 87.227C244.178 87.227 244.115 87.1989 244.068 87.1488C244.021 87.0988 243.995 87.0309 243.995 86.96C244.008 85.5256 244.136 84.0951 244.377 82.6843C244.39 82.6148 244.428 82.5534 244.482 82.5128C244.536 82.4723 244.602 82.4557 244.668 82.4667C244.699 82.4731 244.729 82.4861 244.756 82.5051C244.783 82.524 244.806 82.5485 244.825 82.5772C244.843 82.6058 244.855 82.638 244.862 82.6719C244.868 82.7058 244.868 82.7407 244.862 82.7747C244.632 84.1563 244.512 85.5565 244.503 86.96C244.503 86.9946 244.497 87.0288 244.485 87.0606C244.472 87.0925 244.454 87.1215 244.432 87.1459C244.409 87.1703 244.382 87.1897 244.352 87.2029C244.323 87.2161 244.291 87.2229 244.259 87.2229L244.244 87.227ZM245.485 78.8481C245.423 78.8264 245.371 78.7795 245.34 78.7174C245.31 78.6554 245.303 78.5829 245.321 78.5154C245.661 77.2832 246.085 75.9483 246.585 74.4697C246.609 74.4048 246.656 74.3523 246.715 74.3232C246.774 74.2942 246.841 74.2907 246.902 74.3136C246.962 74.34 247.009 74.3907 247.035 74.4545C247.06 74.5184 247.06 74.5902 247.036 74.6545C246.528 76.1209 246.115 77.4311 245.783 78.6674C245.767 78.7216 245.736 78.7691 245.693 78.803C245.651 78.8369 245.599 78.8555 245.546 78.8563L245.485 78.8481ZM248.159 70.8347C248.129 70.8205 248.101 70.7999 248.079 70.7742C248.056 70.7485 248.038 70.7182 248.025 70.685C248.013 70.6518 248.008 70.6164 248.008 70.5808C248.009 70.5452 248.016 70.51 248.029 70.4774C248.446 69.3684 249.011 68.0911 249.615 66.6823V66.6124C249.647 66.556 249.697 66.5142 249.755 66.4952C249.814 66.4761 249.877 66.4811 249.933 66.5091C249.988 66.5372 250.032 66.5863 250.056 66.6471C250.08 66.7079 250.082 66.776 250.062 66.8383V66.9082C249.466 68.2841 248.893 69.582 248.473 70.7074C248.454 70.752 248.425 70.7899 248.386 70.8162C248.348 70.8425 248.304 70.8561 248.259 70.8553L248.159 70.8347ZM251.529 63.1418C251.499 63.1289 251.471 63.1093 251.449 63.0843C251.389 63.0563 251.343 63.0044 251.319 62.9397C251.296 62.8751 251.297 62.803 251.323 62.7392C251.911 61.2812 252.377 59.9915 252.744 58.7962C252.765 58.7292 252.809 58.6737 252.868 58.6415C252.926 58.6093 252.994 58.6029 253.057 58.6237C253.119 58.6478 253.169 58.6972 253.197 58.7611C253.225 58.825 253.228 58.8982 253.206 58.9646C252.824 60.1681 252.362 61.4742 251.77 62.9487C251.75 62.9958 251.717 63.0357 251.676 63.0634C251.636 63.0911 251.588 63.1055 251.54 63.1048L251.529 63.1418ZM253.901 55.0257C253.838 55.0118 253.782 54.9727 253.745 54.9164C253.707 54.86 253.691 54.7905 253.699 54.7218C253.807 53.9909 253.862 53.2521 253.863 52.512C253.867 51.8643 253.812 51.2177 253.699 50.5816C253.695 50.5212 253.71 50.4611 253.741 50.4106C253.772 50.3601 253.817 50.322 253.871 50.3023C253.902 50.2914 253.935 50.2873 253.967 50.2901C254 50.2929 254.032 50.3026 254.061 50.3186C254.09 50.3346 254.116 50.3567 254.137 50.3835C254.158 50.4103 254.174 50.4413 254.184 50.4748C254.303 51.1518 254.361 51.8395 254.356 52.5285C254.356 53.2948 254.299 54.0599 254.184 54.8162C254.174 54.878 254.145 54.9342 254.101 54.9754C254.057 55.0166 254.001 55.0402 253.943 55.0421L253.901 55.0257ZM252.216 47.0493C252.174 47.0487 252.133 47.0367 252.096 47.0144C252.06 46.9922 252.029 46.9604 252.006 46.922C251.17 45.8661 250.15 44.9956 249.004 44.359C248.947 44.3251 248.905 44.2693 248.885 44.203C248.865 44.1367 248.869 44.0648 248.897 44.0017C248.929 43.9405 248.982 43.8951 249.045 43.8752C249.107 43.8553 249.175 43.8624 249.233 43.8949C250.435 44.5642 251.507 45.4762 252.388 46.5811C252.432 46.6319 252.456 46.6987 252.456 46.768C252.456 46.8373 252.432 46.904 252.388 46.9549C252.344 46.993 252.289 47.0133 252.232 47.0124L252.216 47.0493ZM225.761 43.5622C225.706 43.5609 225.654 43.5399 225.611 43.5027C225.569 43.4655 225.54 43.4141 225.528 43.3569C225.52 43.3226 225.52 43.2871 225.525 43.2525C225.53 43.2178 225.542 43.1846 225.56 43.1549C225.577 43.1251 225.6 43.0993 225.626 43.079C225.653 43.0587 225.683 43.0442 225.715 43.0365C227.025 42.7531 228.34 42.5107 229.65 42.33C229.682 42.3254 229.714 42.3276 229.745 42.3365C229.775 42.3455 229.804 42.3609 229.83 42.3819C229.855 42.4029 229.876 42.4291 229.892 42.459C229.907 42.4889 229.917 42.5218 229.921 42.5559C229.925 42.59 229.923 42.6245 229.915 42.6577C229.907 42.6909 229.892 42.7219 229.873 42.7491C229.853 42.7762 229.829 42.7989 229.801 42.8158C229.773 42.8327 229.743 42.8435 229.711 42.8475C228.393 43.0324 227.087 43.2583 225.83 43.554H225.757L225.761 43.5622ZM245.416 42.9543C244.143 42.6458 242.849 42.4453 241.546 42.3547C241.482 42.3484 241.423 42.3151 241.381 42.262C241.34 42.2089 241.319 42.1404 241.325 42.0713C241.331 42.0015 241.361 41.937 241.41 41.891C241.46 41.8451 241.523 41.8214 241.588 41.8248C242.913 41.923 244.228 42.1289 245.523 42.4409C245.555 42.444 245.586 42.4539 245.615 42.4701C245.643 42.4863 245.668 42.5085 245.689 42.5353C245.709 42.5621 245.724 42.593 245.733 42.6261C245.742 42.6593 245.745 42.6941 245.741 42.7284C245.733 42.7979 245.701 42.8613 245.65 42.9051C245.599 42.9489 245.535 42.9695 245.47 42.9625L245.416 42.9543ZM233.612 42.5025C233.553 42.4887 233.501 42.4522 233.466 42.4C233.431 42.3477 233.415 42.2833 233.421 42.2191C233.419 42.185 233.423 42.1508 233.433 42.1185C233.444 42.0863 233.46 42.0566 233.482 42.0313C233.503 42.006 233.529 41.9856 233.558 41.9713C233.587 41.957 233.618 41.9491 233.65 41.948C234.765 41.8618 236.137 41.7755 237.585 41.7427C237.649 41.7427 237.71 41.7699 237.755 41.8185C237.8 41.867 237.825 41.9328 237.825 42.0014C237.826 42.0716 237.802 42.1393 237.757 42.19C237.712 42.2407 237.65 42.2704 237.585 42.2725C236.148 42.3013 234.788 42.3916 233.65 42.4738L233.612 42.5025Z" fill="#2CB67D"/>
<path d="M290.137 85.6252C290.085 85.6262 290.035 85.6105 289.992 85.58C289.966 85.5615 289.943 85.5375 289.926 85.5096C289.909 85.4816 289.897 85.4502 289.892 85.4173C289.886 85.3844 289.886 85.3505 289.893 85.3178C289.9 85.2851 289.912 85.2542 289.93 85.2268C290.248 84.6246 290.534 84.0034 290.786 83.3662C290.814 83.303 290.863 83.2534 290.923 83.2274C290.983 83.2015 291.05 83.2012 291.111 83.2265C291.17 83.2545 291.217 83.3065 291.24 83.3711C291.264 83.4357 291.263 83.5078 291.237 83.5716C290.978 84.2296 290.682 84.8701 290.351 85.4897C290.33 85.5317 290.298 85.5666 290.26 85.5905C290.221 85.6144 290.177 85.6264 290.133 85.6252H290.137Z" fill="#2CB67D"/>
<path d="M69.1475 95.1293L75.9934 173.197H79.4967L72.3336 94.9568L69.1475 95.1293Z" fill="#C2C4C6"/>
<path d="M78.8625 95.1293L83.4775 172.17H86.3465L82.362 94.9568L78.8625 95.1293Z" fill="#C2C4C6"/>
<path d="M78.385 244.931H74.8779V178.676H80.1347L78.385 244.931Z" fill="#C2C4C6"/>
<path d="M98.2889 244.586H94.7856L93.353 178.676H98.6059L98.2889 244.586Z" fill="#C2C4C6"/>
<path d="M103.542 244.759H107.045L108.478 178.844H103.225L103.542 244.759Z" fill="#C2C4C6"/>
<path d="M130.135 244.759H133.638L133.798 179.362H128.542L130.135 244.759Z" fill="#C2C4C6"/>
<path d="M102.109 170.798H74.2439V179.699H102.109V170.798Z" fill="#2E3135"/>
<path d="M134.754 170.798H102.109V179.699H134.754V170.798Z" fill="#3F4347"/>
<path d="M105.773 230.72V237.739H113.257V229.865L105.773 230.72Z" fill="#F9B499"/>
<path d="M105.452 243.962V237.226L113.276 237.119L122.021 242.081C122.261 242.218 122.463 242.423 122.604 242.674C122.744 242.925 122.819 243.213 122.819 243.506C122.818 243.931 122.661 244.338 122.383 244.639C122.105 244.94 121.728 245.112 121.333 245.116L106.682 245.26C106.522 245.263 106.362 245.232 106.213 245.168C106.064 245.104 105.928 245.009 105.814 244.888C105.699 244.768 105.608 244.623 105.546 244.464C105.484 244.305 105.452 244.134 105.452 243.962Z" fill="#2CB67D"/>
<path d="M140.167 230.552V237.567H147.651V229.693L140.167 230.552Z" fill="#F9B499"/>
<path d="M139.85 243.789V237.053L147.674 236.947L156.403 241.908C156.644 242.045 156.846 242.25 156.987 242.501C157.128 242.752 157.202 243.04 157.202 243.333C157.202 243.758 157.045 244.166 156.767 244.468C156.489 244.769 156.111 244.94 155.716 244.943L141.065 245.091C140.905 245.092 140.747 245.059 140.6 244.993C140.453 244.928 140.319 244.832 140.206 244.711C140.093 244.59 140.003 244.447 139.942 244.289C139.881 244.13 139.85 243.961 139.85 243.789Z" fill="#2CB67D"/>
<path d="M53.7019 244.931H56.0896L68.9869 142.207H66.4388L53.7019 244.931Z" fill="#9EA0A3"/>
<path d="M100.038 244.931H97.6508L84.7534 142.207H87.3016L100.038 244.931Z" fill="#9EA0A3"/>
<path d="M93.0359 198.535H60.231V201.274H93.0359V198.535Z" fill="#9EA0A3"/>
<path d="M178.702 244.931H181.09L193.991 142.207H191.443L178.702 244.931Z" fill="#9EA0A3"/>
<path d="M225.043 244.931H222.651L209.754 142.207H212.302L225.043 244.931Z" fill="#9EA0A3"/>
<path d="M218.036 198.535H185.231V201.274H218.036V198.535Z" fill="#9EA0A3"/>
<path d="M110.231 85.7153L110.548 96.1561L67.8716 97.1829L67.394 87.0831L110.231 85.7153Z" fill="#2E3135"/>
<path d="M223.45 138.786H61.1861C59.7788 138.786 58.6379 140.013 58.6379 141.526C58.6379 143.039 59.7788 144.265 61.1861 144.265H223.45C224.857 144.265 225.998 143.039 225.998 141.526C225.998 140.013 224.857 138.786 223.45 138.786Z" fill="#E1E1E2"/>
<path d="M101.315 233.973H121.379L124.722 186.739C124.722 186.739 124.882 179.892 124.404 176.639C124.404 176.639 132.683 182.459 134.593 183.486L134.009 230.478C134.009 230.478 147.494 233.817 153.702 231.763L155.933 180.574C155.933 180.574 157.523 167.734 148.293 159.516L131.484 144.343L87.8786 144.183C87.8786 144.183 83.2942 162.941 92.7036 173.727L102.082 183.773C102.451 184.168 102.738 184.64 102.927 185.161C103.116 185.681 103.202 186.238 103.179 186.796L101.315 233.973Z" fill="#2F2E41"/>
<path opacity="0.2" d="M124.404 176.623C124.404 176.623 124.882 170.462 120.424 163.438L111.824 148.2C111.824 148.2 129.936 163.705 137.096 172.33C138.766 174.344 139.676 176.956 139.648 179.654L139.032 231.406C137.341 231.2 135.663 230.882 134.009 230.453L134.593 183.486L124.404 176.623Z" fill="black"/>
<path d="M113.016 88.147L96.0426 92.3898C96.0426 92.3898 87.764 92.5623 85.2158 102.149L81.4719 123.293L90.4687 130.226L97.8534 138.774H144.942L142.383 105.402C142.383 105.402 139.991 96.1069 123.511 92.1105L113.016 88.147Z" fill="#2CB67D"/>
<path opacity="0.2" d="M98.7664 101.635L98.0024 116.323L97.8687 138.774H109.605C109.605 138.774 102.27 116.873 98.7664 101.635Z" fill="black"/>
<path opacity="0.2" d="M131.717 138.774H139.086C139.086 138.774 134.437 121.494 134.276 107.796L131.717 138.774Z" fill="black"/>
<path d="M185.846 89.1367H140.35C138.139 89.1367 136.347 91.0639 136.347 93.4412V124.382C136.347 126.759 138.139 128.686 140.35 128.686H185.846C188.058 128.686 189.85 126.759 189.85 124.382V93.4412C189.85 91.0639 188.058 89.1367 185.846 89.1367Z" fill="#2F2E41"/>
<path opacity="0.2" d="M185.9 89.1367H140.297C138.115 89.1367 136.347 91.0381 136.347 93.3837V124.439C136.347 126.785 138.115 128.686 140.297 128.686H185.9C188.082 128.686 189.85 126.785 189.85 124.439V93.3837C189.85 91.0381 188.082 89.1367 185.9 89.1367Z" fill="black"/>
<path d="M166.027 81.3246C166.01 81.5028 165.937 81.6694 165.82 81.797C165.704 81.9247 165.553 82.0083 165.389 82.0352L160.392 82.8033C160.392 82.8033 161.985 83.1442 161.985 84.171C161.985 84.171 162.302 84.8569 161.347 85.5428C161.53 85.8885 161.613 86.2855 161.585 86.6824C161.556 87.0793 161.417 87.4579 161.186 87.769C161.186 87.769 161.595 88.8698 160.995 89.1737L149.721 89.1367C149.721 89.1367 153.542 81.4314 159.754 80.5771L165.102 80.4333H165.27C165.375 80.4341 165.48 80.4582 165.576 80.5043C165.672 80.5504 165.759 80.6174 165.83 80.7011C165.901 80.7848 165.955 80.8834 165.989 80.9907C166.023 81.098 166.035 81.2117 166.027 81.3246Z" fill="#F9B499"/>
<path d="M166.027 81.3246C166.01 81.5028 165.937 81.6694 165.82 81.797C165.704 81.9247 165.553 82.0083 165.389 82.0352L160.392 82.8033C158.703 82.6895 157.025 83.1696 155.613 84.171C156.728 81.7764 161.664 81.7764 161.664 81.7764C163.914 81.6039 164.785 80.9961 165.102 80.4333H165.27C165.376 80.4341 165.48 80.4582 165.576 80.5043C165.672 80.5504 165.759 80.6174 165.83 80.7011C165.901 80.7848 165.955 80.8834 165.989 80.9907C166.023 81.098 166.036 81.2117 166.027 81.3246Z" fill="#F7A48B"/>
<path d="M160.709 85.8838L158.313 88.4509C158.313 88.4509 157.767 89.0382 155.257 89.1737" stroke="#F7A48B" stroke-miterlimit="10"/>
<path d="M123.449 85.8839V92.9896C123.449 94.4656 122.904 95.8812 121.933 96.9249C120.962 97.9686 119.646 98.555 118.273 98.555C116.9 98.555 115.583 97.9686 114.612 96.9249C113.642 95.8812 113.096 94.4656 113.096 92.9896V82.1175L114.777 81.3577L123.449 85.8839Z" fill="#F9B499"/>
<path d="M123.449 85.8839V90.94C122.032 90.8702 118.242 90.1802 115.885 84.9187L123.449 85.8839Z" fill="#F7A48B"/>
<path d="M127.27 79.2094C128.852 79.2094 130.135 77.2547 130.135 74.8434C130.135 72.4321 128.852 70.4773 127.27 70.4773C125.687 70.4773 124.404 72.4321 124.404 74.8434C124.404 77.2547 125.687 79.2094 127.27 79.2094Z" fill="#2CB67D"/>
<path opacity="0.2" d="M126.952 78.3386C128.096 78.3386 129.023 76.9263 129.023 75.1842C129.023 73.4421 128.096 72.0298 126.952 72.0298C125.809 72.0298 124.882 73.4421 124.882 75.1842C124.882 76.9263 125.809 78.3386 126.952 78.3386Z" fill="black"/>
<path d="M126.548 70.7856C125.118 66.667 120.853 64.5746 117.022 66.112C113.192 67.6494 111.245 72.2345 112.675 76.3531L114.959 82.9292C116.389 87.0478 120.653 89.1403 124.484 87.6028C128.315 86.0654 130.261 81.4803 128.831 77.3618L126.548 70.7856Z" fill="#F9B499"/>
<path d="M109.555 79.8174C109.555 79.8174 105.513 74.5272 108.409 67.134C108.651 66.4955 109.07 65.9521 109.608 65.5773C109.957 65.3165 110.369 65.1712 110.793 65.1595C111.217 65.1478 111.636 65.2703 111.996 65.5116C111.996 65.5116 111.996 65.4172 112.03 65.2611C112.134 64.6288 112.355 64.0252 112.678 63.4855C113.002 62.9459 113.422 62.481 113.915 62.1181C114.408 61.7551 114.963 61.5014 115.547 61.3718C116.132 61.2422 116.735 61.2393 117.321 61.3632C119.378 61.7608 121.479 61.8065 123.549 61.4988C123.896 61.449 124.239 61.3722 124.576 61.2688C125.772 60.9156 129.699 60.1803 129.967 65.8361C129.967 65.8361 130.903 68.8139 126.693 71.0072L126.055 69.5532C125.715 68.9215 125.283 68.3528 124.775 67.8692C124.775 67.8692 120.416 71.8287 114.999 70.8018L114.387 72.8555L109.555 79.8174Z" fill="#2F2E41"/>
<path d="M112.852 78.3386H115.144V83.3044H112.852C112.244 83.3044 111.661 83.0447 111.231 82.5826C110.801 82.1204 110.56 81.4936 110.56 80.84C110.555 80.5132 110.611 80.1888 110.724 79.8855C110.837 79.5823 111.005 79.3062 111.219 79.0734C111.432 78.8407 111.686 78.6558 111.967 78.5297C112.247 78.4035 112.548 78.3386 112.852 78.3386Z" fill="#F9B499"/>
<path d="M112.302 73.3854C112.302 73.3854 111.327 64.76 117.306 61.3633L118.662 61.6138C118.662 61.6138 114.078 66.5919 115.178 73.2416L112.302 73.3854Z" fill="#2CB67D"/>
<path d="M113.895 82.4623C115.654 82.4623 117.081 80.2777 117.081 77.5829C117.081 74.888 115.654 72.7034 113.895 72.7034C112.135 72.7034 110.708 74.888 110.708 77.5829C110.708 80.2777 112.135 82.4623 113.895 82.4623Z" fill="#3F4347"/>
<path d="M112.302 81.7765C114.061 81.7765 115.488 79.899 115.488 77.583C115.488 75.2669 114.061 73.3894 112.302 73.3894C110.542 73.3894 109.115 75.2669 109.115 77.583C109.115 79.899 110.542 81.7765 112.302 81.7765Z" fill="#2CB67D"/>
<path opacity="0.2" d="M112.061 80.4047C113.249 80.4047 114.212 79.0642 114.212 77.4105C114.212 75.7568 113.249 74.4163 112.061 74.4163C110.873 74.4163 109.91 75.7568 109.91 77.4105C109.91 79.0642 110.873 80.4047 112.061 80.4047Z" fill="black"/>
<path d="M92.4744 140.326C99.0256 140.326 104.336 134.655 104.336 127.659C104.336 120.664 99.0256 114.992 92.4744 114.992C85.9231 114.992 80.6123 120.664 80.6123 127.659C80.6123 134.655 85.9231 140.326 92.4744 140.326Z" fill="#2CB67D"/>
<path d="M113.257 129.368C113.257 129.368 85.8691 145.464 82.6944 130.395C82.6944 130.395 79.9858 118.755 91.9281 118.755C91.9281 118.755 101.005 118.582 114.223 121.494L127.751 124.497C128.983 124.772 130.089 125.498 130.88 126.55L136.798 134.354C136.859 134.436 136.903 134.531 136.927 134.633C136.951 134.735 136.954 134.841 136.936 134.944C136.918 135.047 136.879 135.145 136.822 135.23C136.765 135.316 136.692 135.387 136.607 135.439C136.483 135.515 136.34 135.547 136.199 135.53C136.057 135.513 135.924 135.448 135.82 135.344L129.18 128.859L130.368 132.264C130.489 132.6 130.537 132.963 130.507 133.322C130.477 133.682 130.371 134.029 130.196 134.338C129.814 134.978 129.1 135.537 127.747 135.196C127.747 135.196 126.792 136.223 125.199 135.196C125.199 135.196 123.858 136.059 120.557 136.202C120.473 136.217 120.386 136.2 120.311 136.155C120.236 136.11 120.177 136.039 120.144 135.953C120.112 135.867 120.107 135.773 120.13 135.684C120.154 135.595 120.205 135.517 120.275 135.463C120.886 134.839 121.849 134.063 122.811 134.165L121.856 131.771C121.856 131.771 115.484 132.793 113.257 129.368Z" fill="#F9B499"/>
<path d="M125.039 126.46C125.039 126.46 128.542 126.115 129.18 128.855" stroke="#F7A48B" stroke-miterlimit="10"/>
<path d="M123.606 127.146L125.547 128.144C126.071 128.412 126.521 128.824 126.851 129.338C127.181 129.852 127.379 130.45 127.426 131.073L127.747 135.18" stroke="#F7A48B" stroke-miterlimit="10"/>
<path d="M125.199 135.192L125.077 132.473C125.061 132.036 124.959 131.607 124.776 131.216C124.594 130.825 124.335 130.481 124.019 130.206L122.49 128.854" stroke="#F7A48B" stroke-miterlimit="10"/>
<path d="M187.417 89.1367H144.511C141.584 89.1367 139.212 91.6873 139.212 94.8336V122.989C139.212 126.135 141.584 128.686 144.511 128.686H187.417C190.343 128.686 192.715 126.135 192.715 122.989V94.8336C192.715 91.6873 190.343 89.1367 187.417 89.1367Z" fill="#2F2E41"/>
<path d="M176.078 93.0757H176.074C175.327 93.0757 174.722 93.7267 174.722 94.5297V100.354C174.722 101.157 175.327 101.808 176.074 101.808H176.078C176.825 101.808 177.43 101.157 177.43 100.354V94.5297C177.43 93.7267 176.825 93.0757 176.078 93.0757Z" fill="#2CB67D"/>
<path d="M180.219 93.0757H180.215C179.468 93.0757 178.863 93.7267 178.863 94.5297V100.354C178.863 101.157 179.468 101.808 180.215 101.808H180.219C180.966 101.808 181.571 101.157 181.571 100.354V94.5297C181.571 93.7267 180.966 93.0757 180.219 93.0757Z" fill="#2CB67D"/>
<path d="M184.517 93.0757H184.513C183.766 93.0757 183.161 93.7267 183.161 94.5297V100.354C183.161 101.157 183.766 101.808 184.513 101.808H184.517C185.264 101.808 185.869 101.157 185.869 100.354V94.5297C185.869 93.7267 185.264 93.0757 184.517 93.0757Z" fill="#2CB67D"/>
<path d="M160.224 108.827L166.275 136.901H147.815C147.689 136.9 147.563 136.926 147.446 136.978C147.329 137.03 147.223 137.106 147.133 137.203C147.044 137.299 146.973 137.413 146.925 137.539C146.877 137.665 146.852 137.8 146.853 137.936C146.853 138.209 146.954 138.471 147.133 138.665C147.313 138.858 147.557 138.967 147.811 138.967H174.741C175.087 138.968 175.43 138.886 175.744 138.728C176.057 138.569 176.334 138.337 176.554 138.048C176.773 137.76 176.93 137.422 177.013 137.06C177.096 136.698 177.103 136.321 177.033 135.956L171.876 108.996L160.224 108.827Z" fill="#2CB67D"/>
<path opacity="0.2" d="M160.231 108.827L160.101 128.62L164.449 128.76L160.231 108.827Z" fill="black"/>
<path d="M40.755 193.487C36.736 184.611 29.6761 180.052 21.7833 182.566C13.8906 185.079 12.6337 196.966 18.5743 199.964C24.5149 202.963 30.4172 194.214 33.527 192.407C36.6367 190.6 40.755 193.487 40.755 193.487Z" fill="#2CB67D"/>
<path d="M44.6442 217.166C44.6442 216.094 44.5792 215.022 44.5448 213.95C44.4761 211.814 44.4048 209.68 44.3309 207.547C44.201 203.636 43.8075 199.804 42.3061 196.198C40.9721 192.936 38.7505 190.186 35.9339 188.308C34.8881 187.628 33.7609 187.104 32.5835 186.751C31.5179 185.588 30.1596 184.784 28.6753 184.439C26.8404 184.034 24.9534 183.981 23.1015 184.283C23.0289 184.283 23.0365 184.41 23.1015 184.394C24.8654 184.151 26.6567 184.291 28.3697 184.804C29.1047 185.017 29.8168 185.313 30.4937 185.687C30.9211 185.928 31.331 186.202 31.7201 186.509C30.121 186.149 28.4684 186.166 26.8759 186.558C26.3011 186.706 25.7388 186.905 25.195 187.154C24.764 187.05 24.3222 187.007 23.8808 187.026C23.3018 187.05 22.7268 187.139 22.1655 187.293C21.0178 187.637 19.9208 188.153 18.9068 188.825C18.8456 188.825 18.9068 188.953 18.9641 188.916C19.9607 188.32 21.029 187.875 22.1387 187.593C22.6785 187.465 23.2263 187.38 23.7777 187.339C24.0793 187.322 24.3815 187.322 24.6831 187.339C22.4269 188.457 20.613 190.4 19.5639 192.822C19.5639 192.888 19.625 192.949 19.6555 192.879C20.2842 191.477 21.1969 190.245 22.3267 189.272C23.4565 188.299 24.7747 187.61 26.1844 187.256C26.364 187.215 26.5436 187.191 26.7193 187.154C26.6773 187.437 26.6505 187.725 26.6352 188.008C26.5779 188.439 26.5092 188.871 26.4328 189.298C26.2687 190.178 26.0544 191.046 25.791 191.898C25.5128 192.759 25.1823 193.6 24.8015 194.415C24.445 195.286 23.9936 196.108 23.4567 196.863C23.4444 196.872 23.4355 196.885 23.432 196.9C23.4284 196.916 23.4305 196.932 23.4376 196.946C23.4485 196.955 23.462 196.96 23.4758 196.96C23.4897 196.96 23.5032 196.955 23.5141 196.946C23.5248 196.938 23.5328 196.926 23.537 196.913C24.0145 196.091 24.5685 195.372 25.004 194.539C25.4203 193.748 25.7793 192.924 26.0775 192.074C26.3768 191.209 26.6081 190.319 26.769 189.413C26.8604 188.936 26.9292 188.455 26.9752 187.971C27.0324 187.68 27.0517 187.381 27.0326 187.084C27.9624 186.935 28.9061 186.916 29.8405 187.026C29.489 189.146 29.1146 191.356 28.0067 193.187C27.9724 193.245 28.0717 193.307 28.1061 193.241C28.6294 192.266 29.0914 191.255 29.489 190.214C29.8555 189.202 30.0882 188.14 30.1805 187.059C31.8143 187.297 33.3918 187.864 34.8298 188.731C37.5377 190.427 39.7005 192.97 41.0302 196.021C42.4189 199.298 43.1976 202.835 43.3223 206.433C43.5859 210.952 43.6394 215.539 44.0635 220.062C44.0635 220.357 44.5257 220.472 44.5754 220.119C44.6779 219.139 44.7009 218.151 44.6442 217.166Z" fill="#2F2E41"/>
<path d="M35.3568 187.544C35.089 187.207 34.7822 186.909 34.4438 186.657C34.1114 186.369 33.7523 186.086 33.4199 185.835C32.7204 185.321 31.9456 184.936 31.1278 184.698C31.059 184.698 31.0284 184.796 31.1278 184.808C31.9458 185.032 32.711 185.438 33.3741 186C33.7153 186.257 34.0407 186.539 34.3483 186.842C34.627 187.15 34.9356 187.425 35.269 187.663C35.3225 187.684 35.3989 187.593 35.3568 187.544Z" fill="#2F2E41"/>
<path d="M22.5396 190.764C21.8742 191.585 21.2566 192.449 20.6906 193.352C20.1401 194.274 19.6768 195.254 19.3076 196.276C19.3076 196.276 19.342 196.317 19.3573 196.276C20.2773 194.344 21.3632 192.508 22.6007 190.793C22.658 190.784 22.5816 190.702 22.5396 190.764Z" fill="#2F2E41"/>
<path d="M31.1813 189.885C31.0949 190.437 30.9408 190.974 30.7229 191.483C30.502 191.987 30.244 192.472 29.9512 192.933C29.9512 192.933 29.9512 192.994 29.9932 192.933C30.6905 192.077 31.1359 191.017 31.273 189.889C31.2921 189.84 31.1851 189.811 31.1813 189.885Z" fill="#2F2E41"/>
<path d="M44.0862 193.701C44.0862 193.701 49.7746 186.016 60.7809 188.739C71.2103 191.335 76.001 211.9 65.4837 214.364C54.9664 216.829 56.7658 197.812 52.9264 194.555C50.107 192.189 46.046 192.698 44.0862 193.701Z" fill="#2CB67D"/>
<path d="M69.2239 199.977C68.509 199.302 67.7535 198.679 66.9623 198.112C66.2171 197.565 65.4061 197.13 64.5517 196.818C64.1235 196.12 63.6458 195.458 63.1229 194.838C62.1522 193.719 61.0321 192.761 59.7992 191.996H60.1316C60.7157 191.963 61.301 191.963 61.8851 191.996C63.0542 192.074 64.2 192.382 65.2661 192.904C65.3272 192.904 65.3769 192.83 65.3157 192.801C64.23 192.297 63.0944 191.928 61.9309 191.7C61.3647 191.593 60.7906 191.541 60.2156 191.544C59.9078 191.535 59.5997 191.554 59.2949 191.602H59.1154C58.1051 191.06 57.0398 190.647 55.9407 190.37C56.0448 190.349 56.1471 190.319 56.2463 190.279C56.782 190.149 57.3241 190.052 57.87 189.988C58.9627 189.853 60.067 189.871 61.1554 190.041C61.228 190.041 61.2395 189.942 61.1554 189.938C60.0544 189.791 58.9442 189.74 57.8356 189.786C56.9037 189.816 55.977 189.946 55.0697 190.177C54.4071 190.045 53.737 189.963 53.064 189.93C49.2437 189.749 45.0643 191.29 42.6842 194.674C40.3042 198.059 39.8687 202.572 39.4561 206.663C38.8324 212.364 38.7121 218.115 39.097 223.84C39.097 224.173 39.5592 224.115 39.5707 223.795C39.7159 218.944 39.8763 214.126 40.3042 209.259C40.5067 207.029 40.7282 204.799 41.0682 202.564C41.3249 200.655 41.8397 198.797 42.5964 197.048C43.4091 195.258 44.6974 193.767 46.2982 192.764C47.9053 191.77 49.6987 191.175 51.5473 191.023C53.2045 190.879 54.8722 191.047 56.4755 191.52C56.4259 191.868 56.4259 192.223 56.4755 192.571C56.5099 193.008 56.5907 193.439 56.7162 193.857C56.8349 194.253 56.9884 194.637 57.1747 195.003C57.3733 195.413 57.6293 195.746 57.8661 196.153C57.8661 196.214 57.9884 196.153 57.9464 196.087C57.4904 195.393 57.1921 194.594 57.0753 193.754C57.0096 193.359 56.965 192.96 56.9416 192.559V191.643C58.6842 192.22 60.3105 193.144 61.7361 194.366C62.0027 194.599 62.2577 194.848 62.5002 195.109C62.137 195.472 61.822 195.887 61.5642 196.342C61.1886 196.934 60.8626 197.561 60.59 198.215C60.0773 199.51 59.7266 200.874 59.5471 202.268C59.5471 202.342 59.6349 202.367 59.6426 202.268C59.8453 200.903 60.2694 199.587 60.8956 198.379C61.1856 197.782 61.511 197.206 61.8698 196.654C62.0494 196.37 62.2519 196.087 62.4429 195.812C62.5498 195.672 62.6644 195.524 62.7714 195.36C64.0641 196.717 65.1177 198.315 65.8811 200.075C65.3621 200.666 64.9293 201.337 64.5975 202.067C64.204 202.826 63.8618 203.614 63.5737 204.425C63.0421 205.998 62.6032 207.606 62.2595 209.239C62.2545 209.253 62.2549 209.268 62.2606 209.282C62.2664 209.296 62.2769 209.307 62.29 209.313C62.3038 209.318 62.3189 209.318 62.3324 209.312C62.3459 209.306 62.3567 209.294 62.3626 209.28C62.3665 209.266 62.3665 209.252 62.3626 209.239C62.707 207.596 63.2409 206.007 63.9519 204.507C64.2843 203.764 64.6434 203.02 64.9986 202.322C65.3766 201.659 65.7197 200.973 66.0263 200.268C66.7553 201.991 67.1802 203.845 67.2794 205.735C67.2794 205.813 67.3902 205.805 67.3825 205.735C67.179 202.772 66.3367 199.9 64.9222 197.348C65.5984 197.638 66.2602 197.966 66.905 198.33C67.733 198.796 68.5031 199.373 69.1972 200.046C69.2086 200.112 69.2774 200.046 69.2239 199.977Z" fill="#2F2E41"/>
<path d="M61.1708 200.408C60.8461 201.579 60.4296 202.708 60.1317 203.883C59.8293 205.013 59.6662 206.181 59.6465 207.358H59.6962C59.9978 205.002 60.5279 202.686 61.2778 200.449C61.2803 200.441 61.2814 200.433 61.281 200.425C61.2806 200.417 61.2788 200.41 61.2756 200.402C61.2724 200.395 61.2679 200.389 61.2624 200.383C61.2569 200.378 61.2504 200.374 61.2434 200.371C61.2364 200.368 61.2289 200.367 61.2215 200.368C61.214 200.368 61.2067 200.37 61.2 200.373C61.1932 200.377 61.1872 200.382 61.1822 200.388C61.1772 200.393 61.1733 200.4 61.1708 200.408Z" fill="#2F2E41"/>
<path d="M68.1314 197.525C67.6963 197.078 67.2035 196.702 66.6683 196.407C66.1271 196.14 65.5645 195.925 64.9873 195.767C64.9262 195.767 64.9071 195.857 64.9873 195.873C65.563 196.044 66.1143 196.298 66.6262 196.629C67.1439 196.916 67.6407 197.244 68.1123 197.611C68.1123 197.611 68.1544 197.553 68.1314 197.525Z" fill="#2F2E41"/>
<path d="M49.4844 183.437C49.4844 183.437 50.5388 169.632 60.0857 165.163C68.0549 161.442 72.6201 171.053 67.0005 176.951C62.4237 181.72 55.1117 179.568 49.4844 183.437Z" fill="#2CB67D"/>
<path d="M65.2163 167.833C63.7626 168.466 62.3442 169.189 60.9681 169.997C59.825 170.704 58.725 171.489 57.675 172.347C57.8355 171.998 57.973 171.603 58.1334 171.291C58.3786 170.757 58.6489 170.236 58.9433 169.73C59.5221 168.684 60.2188 167.718 61.0178 166.855C61.0674 166.814 61.0178 166.732 60.9414 166.781C60.1384 167.641 59.3988 168.567 58.7294 169.55C58.401 170.052 58.0975 170.573 57.8202 171.111C57.5405 171.608 57.3246 172.144 57.1784 172.704L57.0752 172.786C55.4084 174.216 53.8802 175.824 52.5138 177.584C52.523 177.443 52.5513 177.305 52.5978 177.173C52.7774 176.495 52.9798 175.834 53.1785 175.164C53.5881 173.748 54.1673 172.395 54.9015 171.139C54.9048 171.133 54.907 171.126 54.9079 171.119C54.9087 171.112 54.9083 171.105 54.9065 171.098C54.9047 171.091 54.9016 171.085 54.8975 171.079C54.8934 171.073 54.8882 171.069 54.8824 171.065C54.8766 171.062 54.8703 171.059 54.8637 171.058C54.8571 171.058 54.8503 171.058 54.8439 171.06C54.8375 171.062 54.8315 171.065 54.8263 171.07C54.8211 171.074 54.8168 171.08 54.8136 171.086C54.0609 172.344 53.392 173.657 52.8118 175.017C52.536 175.682 52.3049 176.369 52.1203 177.07C51.9826 177.522 51.8791 177.985 51.8108 178.454C51.3944 179.017 50.978 179.592 50.5998 180.184C46.4968 186.455 44.4415 194.042 43.9525 201.636C43.8029 203.898 43.7659 206.167 43.8417 208.434C43.8574 210.723 44.044 213.007 44.3994 215.264C44.405 215.28 44.4133 215.294 44.4239 215.306C44.4346 215.318 44.4474 215.328 44.4616 215.335C44.4758 215.342 44.4911 215.346 44.5067 215.346C44.5222 215.347 44.5377 215.344 44.5523 215.338C44.5733 215.329 44.5916 215.314 44.6051 215.294C44.6186 215.275 44.6267 215.251 44.6287 215.227C44.5866 213.231 44.3918 211.239 44.3574 209.276C44.3218 207.275 44.3817 205.273 44.537 203.279C44.838 199.296 45.5347 195.359 46.6152 191.536C47.7199 187.621 49.3506 183.9 51.4555 180.492C51.8567 180.401 52.2578 180.282 52.6551 180.179L54.0839 179.769C55.005 179.514 55.9006 179.163 56.7581 178.721C56.8193 178.721 56.7581 178.586 56.7008 178.623C55.8617 179.121 54.9495 179.461 54.0037 179.629C53.2587 179.785 52.4756 179.888 51.7344 180.073C52.4272 178.977 53.167 177.931 53.954 176.935C55.7682 177.114 57.5976 176.968 59.3674 176.503C60.3065 176.256 61.2302 175.946 62.1333 175.575C63.0884 175.164 63.9938 174.667 64.9374 174.244C65.0062 174.244 64.9374 174.101 64.8954 174.138C63.1792 175.147 61.3056 175.809 59.3674 176.093C57.6654 176.385 55.945 176.536 54.2214 176.544C54.9129 175.723 55.6044 174.902 56.3455 174.129C58.8373 171.432 61.8318 169.333 65.1322 167.968C65.3156 167.915 65.2774 167.804 65.2163 167.833Z" fill="#2F2E41"/>
<path d="M57.4574 167.878C57.0263 168.458 56.6356 169.072 56.2884 169.714C55.9299 170.391 55.6465 171.11 55.4441 171.858H55.4823C55.8032 171.18 56.0706 170.478 56.3915 169.805C56.7103 169.139 57.0945 168.513 57.5376 167.936C57.5644 167.899 57.488 167.817 57.4574 167.878Z" fill="#2F2E41"/>
<path d="M66.3091 172.474C65.6886 172.841 65.0327 173.135 64.3531 173.349C63.6998 173.584 63.0338 173.776 62.3589 173.924V173.981C63.0659 173.904 63.7629 173.742 64.4371 173.501C65.09 173.23 65.7278 172.919 66.3473 172.569C66.4428 172.523 66.3855 172.437 66.3091 172.474Z" fill="#2F2E41"/>
<path d="M42.0958 180.952C42.0424 181.555 40.6518 175.941 32.5833 170.963C25.2177 166.445 16.4998 154.673 23.6514 147.235C29.4583 141.287 44.7395 154.324 42.0958 180.952Z" fill="#2CB67D"/>
<path d="M47.6316 213.112C47.5165 207.274 47.0892 201.449 46.3518 195.664C45.7133 190.35 44.5702 185.12 42.9402 180.056C42.3404 178.229 41.6528 176.434 40.9155 174.663C40.9649 173.98 40.9649 173.293 40.9155 172.61C40.8734 171.723 40.797 170.839 40.7206 169.961C40.6442 169.082 40.5678 168.198 40.4647 167.32C40.3615 166.441 40.1934 165.566 40.159 164.687C40.1591 164.673 40.1544 164.66 40.1459 164.65C40.1374 164.64 40.1257 164.634 40.1132 164.633C40.1 164.633 40.0874 164.639 40.0781 164.649C40.0688 164.659 40.0635 164.673 40.0635 164.687C40.2243 165.61 40.3188 166.545 40.3462 167.484C40.4074 168.334 40.457 169.188 40.4761 170.043C40.4952 170.897 40.4761 171.747 40.4761 172.602V173.567C39.7121 171.842 38.8945 170.149 38.0235 168.49C38.5698 164.888 37.8554 161.134 37.1792 157.614C37.1792 157.54 37.0608 157.614 37.0761 157.614C37.4051 159.447 37.5777 161.308 37.5918 163.175C37.5918 164.662 37.5918 166.153 37.5498 167.64C37.3549 167.283 37.1677 166.933 36.9691 166.584C35.9223 164.739 34.8042 162.941 33.6149 161.191C33.71 160.339 33.6842 159.476 33.5385 158.633C33.4036 157.684 33.207 156.746 32.9501 155.827C32.6954 154.91 32.3975 154.008 32.0562 153.121C31.7123 152.205 31.2425 151.342 30.9101 150.426C30.9043 150.414 30.8943 150.404 30.8822 150.4C30.8701 150.395 30.8568 150.396 30.8451 150.402C30.8391 150.404 30.8337 150.408 30.829 150.413C30.8244 150.418 30.8208 150.424 30.8183 150.43C30.8158 150.437 30.8146 150.444 30.8146 150.451C30.8146 150.458 30.8159 150.465 30.8184 150.471C31.2276 151.337 31.5503 152.247 31.7811 153.186C32.0479 154.073 32.2673 154.975 32.4382 155.889C32.6114 156.801 32.754 157.718 32.8661 158.641C32.9501 159.249 32.9998 159.873 33.0953 160.497C31.3684 158 29.4803 155.637 27.4451 153.424C27.3954 153.371 27.3266 153.425 27.3725 153.507C30.447 157.235 33.194 161.261 35.5785 165.533L35.8421 166.018C35.3913 165.722 34.887 165.484 34.4591 165.229L32.1058 163.837C31.3418 163.401 30.5777 162.945 29.8137 162.493C29.4316 162.259 29.0496 162.017 28.637 161.799C28.1557 161.567 27.6931 161.292 27.2541 160.978C27.1967 160.933 27.128 161.031 27.1967 161.068C27.9608 161.528 28.6561 162.214 29.4125 162.711C30.1689 163.208 30.9406 163.73 31.7047 164.198C33.1373 165.061 34.6922 165.685 36.1095 166.568C37.0875 168.408 37.9929 170.289 38.8219 172.228C37.9662 171.642 37.0926 171.079 36.2012 170.54C35.632 170.199 35.0551 169.858 34.4782 169.529C33.9015 169.242 33.3558 168.888 32.8508 168.474C32.7973 168.429 32.7285 168.474 32.7744 168.556C33.7172 169.463 34.7603 170.243 35.8803 170.876C36.9194 171.53 37.9585 172.154 39.0435 172.729C39.9332 174.763 40.7238 176.845 41.4121 178.968C44.8084 189.306 46.0538 200.293 46.6497 211.194C46.8293 214.447 46.921 217.696 46.9592 220.953C46.9974 224.21 46.8369 227.446 46.8446 230.699C46.8485 230.719 46.8585 230.736 46.8727 230.748C46.8869 230.76 46.9046 230.767 46.9229 230.767C46.9412 230.767 46.9589 230.76 46.9731 230.748C46.9873 230.736 46.9973 230.719 47.0012 230.699C47.3832 227.824 47.4329 224.879 47.5475 221.98C47.6621 219.08 47.6812 216.065 47.6316 213.112Z" fill="#2F2E41"/>
<path d="M32.95 166.284C31.4766 165.585 30.0451 164.788 28.6636 163.898C27.2645 163.052 25.9088 162.125 24.6026 161.122C24.6026 161.122 24.553 161.122 24.6026 161.159C25.8372 162.251 27.1433 163.246 28.5108 164.136C29.9422 164.991 31.4209 165.751 32.9385 166.412C32.9653 166.412 33.0073 166.313 32.95 166.284Z" fill="#2F2E41"/>
<path d="M35.2997 154.591C35.1774 154.086 35.0322 153.597 34.8718 153.104C34.8774 153.097 34.8805 153.089 34.8805 153.079C34.8805 153.07 34.8774 153.062 34.8718 153.055C34.7686 152.771 34.6655 152.496 34.5547 152.233C34.5585 152.198 34.5585 152.162 34.5547 152.127L34.4897 151.97L34.5738 152.254C34.5837 152.31 34.5978 152.365 34.6158 152.418C35.1493 154.347 35.549 156.316 35.8116 158.308C35.8116 158.322 35.8168 158.336 35.8261 158.346C35.8354 158.356 35.8481 158.361 35.8612 158.361C35.8676 158.361 35.8739 158.36 35.8797 158.357C35.8855 158.355 35.8908 158.351 35.8951 158.346C35.8994 158.341 35.9027 158.335 35.9047 158.328C35.9068 158.322 35.9076 158.315 35.9071 158.308C35.8146 157.051 35.6112 155.806 35.2997 154.591Z" fill="#2F2E41"/>
<path d="M56.1469 215.211L55.5739 222.555L53.8089 244.939H34.9213L33.1601 222.555L32.5833 215.211H56.1469Z" fill="#2F2E41"/>
<path opacity="0.2" d="M56.1469 215.211L55.5739 222.555H33.1601L32.5833 215.211H56.1469Z" fill="black"/>
<path d="M57.9998 212.266H30.7305V219.31H57.9998V212.266Z" fill="#2F2E41"/>
<path d="M101.475 49.3782H88.1383C87.0686 49.3782 86.2014 50.3105 86.2014 51.4606V57.5928C86.2014 58.7429 87.0686 59.6752 88.1383 59.6752H101.475C102.545 59.6752 103.412 58.7429 103.412 57.5928V51.4606C103.412 50.3105 102.545 49.3782 101.475 49.3782Z" fill="#2CB67D"/>
<path d="M96.3367 58.8948L102.82 64.3739L98.8008 58.5005L96.3367 58.8948Z" fill="#2CB67D"/>
<path d="M98.6517 54.5164C98.6517 54.4371 98.6662 54.3586 98.6944 54.2853C98.7227 54.2121 98.764 54.1455 98.8162 54.0894C98.8683 54.0334 98.9302 53.9889 98.9984 53.9586C99.0665 53.9282 99.1395 53.9126 99.2133 53.9126C99.3251 53.9134 99.4342 53.9499 99.5267 54.0173C99.6193 54.0848 99.6912 54.1803 99.7333 54.2916C99.7754 54.403 99.7858 54.5253 99.7632 54.6431C99.7407 54.7608 99.6861 54.8688 99.6065 54.9532C99.5269 55.0376 99.4258 55.0948 99.316 55.1175C99.2062 55.1401 99.0926 55.1273 98.9896 55.0805C98.8865 55.0337 98.7987 54.9552 98.7372 54.8548C98.6757 54.7544 98.6433 54.6366 98.6441 54.5164H98.6517Z" fill="white"/>
<path d="M95.714 54.5164C95.714 54.3562 95.7731 54.2027 95.8784 54.0894C95.9838 53.9762 96.1266 53.9126 96.2755 53.9126C96.3874 53.9134 96.4965 53.9499 96.589 54.0173C96.6816 54.0848 96.7534 54.1803 96.7955 54.2916C96.8376 54.403 96.848 54.5253 96.8255 54.6431C96.8029 54.7608 96.7484 54.8688 96.6688 54.9532C96.5892 55.0376 96.4881 55.0948 96.3783 55.1175C96.2684 55.1401 96.1548 55.1273 96.0518 55.0805C95.9488 55.0337 95.861 54.9552 95.7995 54.8548C95.738 54.7544 95.7056 54.6366 95.7063 54.5164H95.714Z" fill="white"/>
<path d="M92.7762 54.5164C92.7762 54.3562 92.8354 54.2027 92.9407 54.0894C93.046 53.9762 93.1889 53.9126 93.3378 53.9126C93.4496 53.9134 93.5587 53.9499 93.6513 54.0173C93.7438 54.0848 93.8157 54.1803 93.8578 54.2916C93.8999 54.403 93.9103 54.5253 93.8877 54.6431C93.8652 54.7608 93.8107 54.8688 93.7311 54.9532C93.6514 55.0376 93.5503 55.0948 93.4405 55.1175C93.3307 55.1401 93.2171 55.1273 93.1141 55.0805C93.011 55.0337 92.9232 54.9552 92.8617 54.8548C92.8002 54.7544 92.7678 54.6366 92.7686 54.5164H92.7762Z" fill="white"/>
<path d="M89.8382 54.5164C89.8382 54.3562 89.8974 54.2027 90.0027 54.0894C90.108 53.9762 90.2509 53.9126 90.3998 53.9126C90.5116 53.9134 90.6207 53.9499 90.7133 54.0173C90.8058 54.0848 90.8777 54.1803 90.9198 54.2916C90.9619 54.403 90.9723 54.5253 90.9497 54.6431C90.9272 54.7608 90.8727 54.8688 90.7931 54.9532C90.7135 55.0376 90.6124 55.0948 90.5025 55.1175C90.3927 55.1401 90.2791 55.1273 90.1761 55.0805C90.0731 55.0337 89.9852 54.9552 89.9237 54.8548C89.8622 54.7544 89.8298 54.6366 89.8306 54.5164H89.8382Z" fill="white"/>
</g>
<defs>
<clipPath id="clip0_244_234">
<rect width="328" height="245.26" fill="white"/>
</clipPath>
</defs>
</svg>
