<?xml version="1.0" encoding="UTF-8" standalone="no"?>
<!-- Created with Inkscape (http://www.inkscape.org/) -->

<svg
   width="180"
   height="180"
   viewBox="0 0 180 180"
   version="1.1"
   id="svg5"
   xml:space="preserve"
   inkscape:version="1.2.2 (b0a8486541, 2022-12-01)"
   sodipodi:docname="litjowelIcon.svg"
   inkscape:export-filename="../../Downloads/litjowelIcon.svg"
   inkscape:export-xdpi="96"
   inkscape:export-ydpi="96"
   xmlns:inkscape="http://www.inkscape.org/namespaces/inkscape"
   xmlns:sodipodi="http://sodipodi.sourceforge.net/DTD/sodipodi-0.dtd"
   xmlns="http://www.w3.org/2000/svg"
   xmlns:svg="http://www.w3.org/2000/svg"><sodipodi:namedview
     id="namedview7"
     pagecolor="#ffffff"
     bordercolor="#000000"
     borderopacity="0.25"
     inkscape:showpageshadow="2"
     inkscape:pageopacity="0.0"
     inkscape:pagecheckerboard="0"
     inkscape:deskcolor="#d1d1d1"
     inkscape:document-units="px"
     showgrid="true"
     inkscape:zoom="2"
     inkscape:cx="-18"
     inkscape:cy="59.75"
     inkscape:window-width="1600"
     inkscape:window-height="822"
     inkscape:window-x="0"
     inkscape:window-y="0"
     inkscape:window-maximized="1"
     inkscape:current-layer="layer1"
     showguides="false"><inkscape:grid
       type="xygrid"
       id="grid9" /><sodipodi:guide
       position="5,175"
       orientation="0,1"
       id="guide269"
       inkscape:locked="false"
       inkscape:label=""
       inkscape:color="rgb(0,134,229)" /><sodipodi:guide
       position="5,5"
       orientation="0,1"
       id="guide271"
       inkscape:locked="false"
       inkscape:label=""
       inkscape:color="rgb(0,134,229)" /><sodipodi:guide
       position="5,133.5"
       orientation="-1,0"
       id="guide273"
       inkscape:locked="false"
       inkscape:label=""
       inkscape:color="rgb(0,134,229)" /><sodipodi:guide
       position="175,175"
       orientation="-1,0"
       id="guide275"
       inkscape:locked="false"
       inkscape:label=""
       inkscape:color="rgb(0,134,229)" /><sodipodi:guide
       position="36,110"
       orientation="0,1"
       id="guide331"
       inkscape:locked="false"
       inkscape:label=""
       inkscape:color="rgb(0,134,229)" /></sodipodi:namedview><defs
     id="defs2" /><g
     inkscape:label="Layer 1"
     inkscape:groupmode="layer"
     id="layer1"><g
       id="g2631"
       style="fill:#2cb67d;fill-opacity:1"
       transform="translate(0,2.5)"
       inkscape:label="logo"><path
         style="fill:#2cb67d;fill-opacity:1"
         d="m 5,5 v 115 h 7 v 8 H 5 v 40 h 42 v 2 h 30 v -10 h -9 v -3 h 9 V 143 H 30 V 74 h 6 V 5 Z"
         id="path333"
         sodipodi:nodetypes="ccccccccccccccccccc" /><path
         style="fill:#2cb67d;fill-opacity:1"
         d="m 175,5 v 57 h -3 v 54 h 3 v 49 H 101 V 155 H 89 v -18 h 9 v -4 h -9 v -7.5 h 29 V 140 h 26 v -35 h 11 v -5 H 144 V 5 Z"
         id="path2474"
         sodipodi:nodetypes="ccccccccccccccccccccccc" /><path
         style="fill:#2cb67d;fill-opacity:1"
         d="m 145,101 v 3 h -23 v -3 z"
         id="path2528"
         sodipodi:nodetypes="ccccc" /><path
         style="fill:#2cb67d;fill-opacity:1;stroke-width:0.65938"
         d="m 88,157 v 3 H 78 v -3 z"
         id="path2530"
         sodipodi:nodetypes="ccccc" /><path
         style="fill:#2cb67d;fill-opacity:1;stroke-width:1.28537"
         d="m 158,167.0325 v 3 h -38 v -3 z"
         id="path2532"
         sodipodi:nodetypes="ccccc" /><g
         aria-label="&lt;/&gt;"
         id="text2588"
         style="font-weight:800;font-size:8.00001px;font-family:'JetBrains Mono NL';-inkscape-font-specification:'JetBrains Mono NL, Ultra-Bold'"
         inkscape:label="text-programming"><path
           d="m 35.51548,140.22143 -3.680005,-1.664 v -1.144 l 3.680005,-1.672 v 1.088 l -2.208003,0.968 q -0.16,0.072 -0.336,0.12 -0.176001,0.048 -0.280001,0.064 0.104,0.016 0.280001,0.064 0.176,0.04 0.336,0.112 l 2.208003,0.968 z"
           id="path4111" /><path
           d="m 36.475469,141.49343 2.760003,-7.52 h 1.240001 l -2.760003,7.52 z"
           id="path4113" /><path
           d="m 41.435462,140.22143 v -1.088 l 2.208003,-0.968 q 0.16,-0.072 0.336,-0.12 0.176,-0.048 0.280001,-0.064 -0.104001,-0.016 -0.280001,-0.056 -0.176,-0.048 -0.336,-0.12 l -2.208003,-0.968 v -1.096 l 3.680005,1.664 v 1.144 z"
           id="path4115" /></g></g></g></svg>
